<?xml version="1.0" encoding="UTF-8"?>
<svg width="20px" height="13px" viewBox="0 0 20 13" version="1.1" xmlns="http://www.w3.org/2000/svg" xmlns:xlink="http://www.w3.org/1999/xlink">
    <!-- Generator: Sketch 63.1 (92452) - https://sketch.com -->
    <title>be</title>
    <desc>Created with Sketch.</desc>
    <g id="Page-1" stroke="none" stroke-width="1" fill="none" fill-rule="evenodd">
        <g id="About--Copy" transform="translate(-729.000000, -1764.000000)" fill="#B31B17" fill-rule="nonzero">
            <g id="Group-2" transform="translate(0.000000, 1056.000000)">
                <g id="Group-4" transform="translate(110.000000, 264.000000)">
                    <g id="profileCard-Copy-5" transform="translate(410.000000, 396.000000)">
                        <g id="profileCard">
                            <g id="Group-3" transform="translate(110.000000, 46.000000)">
                                <path d="M106.783784,7.44193857 C107.850699,6.93196652 108.407642,6.16029829 108.407642,4.95917991 C108.407642,2.59049395 106.642871,2.01342032 104.606337,2.01342032 L99,2.01342032 L99,13.9038212 L104.764026,13.9038212 C106.924697,13.9038212 108.95452,12.8671017 108.95452,10.4514447 C108.95452,8.9584344 108.246598,7.85461332 106.783784,7.44193857 L106.783784,7.44193857 Z M101.613607,4.04324327 L104.06617,4.04324327 C105.008947,4.04324327 105.857782,4.30829454 105.857782,5.40205038 C105.857782,6.41192924 105.196831,6.81789383 104.264119,6.81789383 L101.613607,6.81789383 L101.613607,4.04324327 L101.613607,4.04324327 Z M104.408388,11.8840635 L101.613607,11.8840635 L101.613607,8.60950616 L104.462069,8.60950616 C105.612861,8.60950616 106.340913,9.08928249 106.340913,10.3071763 C106.340913,11.5082946 105.471948,11.8840635 104.408388,11.8840635 L104.408388,11.8840635 Z M116.436347,3.80838772 L111.615098,3.80838772 L111.615098,2.63746506 L116.436347,2.63746506 L116.436347,3.80838772 L116.436347,3.80838772 Z M118.325257,9.72339247 C118.325257,7.17688731 116.835601,5.05312213 114.134763,5.05312213 C111.511091,5.05312213 109.729543,7.02590874 109.729543,9.60931978 C109.729543,12.2900281 111.417148,14.1286116 114.134763,14.1286116 C116.191426,14.1286116 117.523393,13.2026097 118.164213,11.2331781 L116.077353,11.2331781 C115.852563,11.9679405 114.926561,12.3571297 114.208574,12.3571297 C112.822927,12.3571297 112.094874,11.5452005 112.094874,10.1662629 L118.305126,10.1662629 C118.315191,10.0253496 118.325257,9.87437104 118.325257,9.72339247 Z M112.098229,8.67660774 C112.175396,7.54594603 112.926934,6.8380243 114.060951,6.8380243 C115.248649,6.8380243 115.845853,7.53588079 115.946505,8.67660774 L112.098229,8.67660774 Z" id="be"></path>
                            </g>
                        </g>
                    </g>
                </g>
            </g>
        </g>
    </g>
</svg>