<?xml version="1.0" encoding="UTF-8"?>
<svg width="16px" height="16px" viewBox="0 0 16 16" version="1.1" xmlns="http://www.w3.org/2000/svg" xmlns:xlink="http://www.w3.org/1999/xlink">
    <!-- Generator: Sketch 63.1 (92452) - https://sketch.com -->
    <title>dribbble</title>
    <desc>Created with Sketch.</desc>
    <g id="Page-1" stroke="none" stroke-width="1" fill="none" fill-rule="evenodd">
        <g id="About--Copy" transform="translate(-773.000000, -1762.000000)" fill="#B31B17" fill-rule="nonzero">
            <g id="Group-2" transform="translate(0.000000, 1056.000000)">
                <g id="Group-4" transform="translate(110.000000, 264.000000)">
                    <g id="profileCard-Copy-5" transform="translate(410.000000, 396.000000)">
                        <g id="profileCard">
                            <path d="M261,46 C256.588774,46 253,49.5887742 253,54 C253,58.4112258 256.588774,62 261,62 C265.411226,62 269,58.4112258 269,54 C269,49.5887742 265.411226,46 261,46 Z M266.289355,49.6892258 C267.241065,50.852 267.817387,52.333 267.832419,53.9458387 C267.607129,53.8981935 265.347968,53.4399677 263.07429,53.7259032 C262.888742,53.2729677 262.713613,52.8745161 262.473742,52.3835161 C265.000226,51.352 266.14529,49.8840968 266.289355,49.6892258 L266.289355,49.6892258 Z M265.52971,48.8990323 C265.406806,49.0740968 264.378194,50.4566452 261.948387,51.3673871 C260.828645,49.3100968 259.587581,47.6200323 259.39871,47.367129 C261.565677,46.8447742 263.849226,47.4080968 265.52971,48.8990323 L265.52971,48.8990323 Z M258.094871,47.8264516 C258.275032,48.0735161 259.496097,49.7656774 260.628323,51.7783548 C257.431968,52.6271613 254.61671,52.6149355 254.311097,52.6109032 C254.754194,50.4904839 256.183161,48.7281613 258.094871,47.8264516 Z M254.166774,54.0104194 C254.166774,53.9405484 254.168161,53.871 254.170258,53.8016129 C254.469226,53.8077419 257.780581,53.8504194 261.193032,52.8291613 C261.388645,53.212 261.575516,53.6006129 261.747032,53.9888065 C259.276097,54.6847742 257.031097,56.6832258 255.923452,58.5793226 C254.832065,57.3679032 254.166774,55.7654839 254.166774,54.0104194 Z M256.80571,59.4011613 C257.519484,57.9420323 259.456613,56.0585161 262.211484,55.1187097 C263.170839,57.6117097 263.567581,59.7010645 263.669194,60.3005806 C261.472032,61.2364839 258.83,60.9797097 256.80571,59.4011613 L256.80571,59.4011613 Z M264.817968,59.675 C264.747935,59.2593226 264.384226,57.2589677 263.490484,54.8029677 C265.631774,54.4601935 267.513065,55.0212903 267.746839,55.0950645 C267.442258,56.9963871 266.350935,58.6384194 264.817968,59.675 Z" id="dribbble"></path>
                        </g>
                    </g>
                </g>
            </g>
        </g>
    </g>
</svg>