<?xml version="1.0" encoding="UTF-8"?>
<svg width="16px" height="16px" viewBox="0 0 16 16" version="1.1" xmlns="http://www.w3.org/2000/svg" xmlns:xlink="http://www.w3.org/1999/xlink">
    <!-- Generator: Sketch 63.1 (92452) - https://sketch.com -->
    <title>ig</title>
    <desc>Created with Sketch.</desc>
    <g id="Page-1" stroke="none" stroke-width="1" fill="none" fill-rule="evenodd">
        <g id="About--Copy" transform="translate(-753.000000, -1762.000000)" fill="#B31B17" fill-rule="nonzero">
            <g id="Group-2" transform="translate(0.000000, 1056.000000)">
                <g id="Group-4" transform="translate(110.000000, 264.000000)">
                    <g id="profileCard-Copy-5" transform="translate(410.000000, 396.000000)">
                        <g id="profileCard">
                            <path d="M241.001785,49.8978021 C238.731623,49.8978021 236.900502,51.7293317 236.900502,54 C236.900502,56.2706683 238.731623,58.1021979 241.001785,58.1021979 C243.271946,58.1021979 245.103067,56.2706683 245.103067,54 C245.103067,51.7293317 243.271946,49.8978021 241.001785,49.8978021 Z M241.001785,56.6669642 C239.534746,56.6669642 238.335416,55.4709361 238.335416,54 C238.335416,52.5290639 239.531177,51.3330358 241.001785,51.3330358 C242.472393,51.3330358 243.668154,52.5290639 243.668154,54 C243.668154,55.4709361 242.468823,56.6669642 241.001785,56.6669642 L241.001785,56.6669642 Z M246.22744,49.7300011 C246.22744,50.2619659 245.799108,50.6868236 245.270831,50.6868236 C244.738985,50.6868236 244.314222,50.2583956 244.314222,49.7300011 C244.314222,49.2016066 244.742554,48.7731786 245.270831,48.7731786 C245.799108,48.7731786 246.22744,49.2016066 246.22744,49.7300011 Z M248.943781,50.7011045 C248.883101,49.4193908 248.590407,48.2840567 247.651645,47.3486556 C246.716453,46.4132545 245.581372,46.1204954 244.299944,46.0562312 C242.979253,45.9812563 239.020747,45.9812563 237.700056,46.0562312 C236.422197,46.1169251 235.287117,46.4096843 234.348355,47.3450854 C233.409593,48.2804864 233.120468,49.4158206 233.056219,50.6975343 C232.98126,52.0185206 232.98126,55.9779092 233.056219,57.2988955 C233.116899,58.5806092 233.409593,59.7159433 234.348355,60.6513444 C235.287117,61.5867455 236.418628,61.8795046 237.700056,61.9437688 C239.020747,62.0187437 242.979253,62.0187437 244.299944,61.9437688 C245.581372,61.8830749 246.716453,61.5903157 247.651645,60.6513444 C248.586838,59.7159433 248.879532,58.5806092 248.943781,57.2988955 C249.01874,55.9779092 249.01874,52.0220908 248.943781,50.7011045 Z M247.237591,58.716278 C246.959175,59.4160437 246.42019,59.9551489 245.717011,60.2371974 C244.664027,60.6549146 242.165421,60.5585184 241.001785,60.5585184 C239.838148,60.5585184 237.335973,60.6513444 236.286559,60.2371974 C235.586949,59.9587192 235.047964,59.419614 234.765979,58.716278 C234.348355,57.6630592 234.44473,55.163896 234.44473,54 C234.44473,52.836104 234.351924,50.3333705 234.765979,49.283722 C235.044395,48.5839563 235.58338,48.0448511 236.286559,47.7628026 C237.339543,47.3450854 239.838148,47.4414816 241.001785,47.4414816 C242.165421,47.4414816 244.667596,47.3486556 245.717011,47.7628026 C246.41662,48.0412808 246.955605,48.580386 247.237591,49.283722 C247.655215,50.3369408 247.55884,52.836104 247.55884,54 C247.55884,55.163896 247.655215,57.6666295 247.237591,58.716278 Z" id="ig"></path>
                        </g>
                    </g>
                </g>
            </g>
        </g>
    </g>
</svg>