<?xml version="1.0" encoding="UTF-8"?>
<svg width="55px" height="53px" viewBox="0 0 55 53" version="1.1" xmlns="http://www.w3.org/2000/svg" xmlns:xlink="http://www.w3.org/1999/xlink">
    <!-- Generator: Sketch 63.1 (92452) - https://sketch.com -->
    <title>np_newspaper-boy_858447_FFF8E4</title>
    <desc>Created with Sketch.</desc>
    <g id="Page-1" stroke="none" stroke-width="1" fill="none" fill-rule="evenodd">
        <g id="together" transform="translate(-319.000000, -160.000000)" fill="#FFF8E4" fill-rule="nonzero">
            <g id="np_newspaper-boy_858447_FFF8E4" transform="translate(319.000000, 160.000000)">
                <path d="M18.8885404,12.0654384 C18.5771511,12.5922738 18.5046314,13.2555546 18.7563046,13.8634164 L18.7563046,13.8634164 L18.7627032,13.8783462 C18.9631436,14.3390096 19.728854,15.9364964 21.3753716,17.5808846 C21.0405098,18.1844876 20.6416622,18.7923494 20.1959024,19.3873801 C18.9503126,21.0573757 17.3421788,22.6206829 15.7766877,23.6956476 C15.2562842,20.3639557 15.3480122,17.9796284 16.0752842,14.8422578 C15.4226504,15.66983 14.8617227,16.4973476 14.4671504,17.113727 C14.2751986,17.4123125 14.1237655,17.6597161 14.0171263,17.8367402 C14.4692689,19.4940685 15.1453916,22.0513141 15.5143674,23.870586 C15.5783532,24.1798404 15.6316728,24.4677681 15.6743291,24.7258404 C15.7340494,25.082029 15.7703071,25.3848897 15.7788389,25.6067022 C15.8022951,26.2508184 15.6423389,26.8543668 15.3437424,27.4238448 L15.3437424,27.4238448 L16.78551,27.425978 L17.4957468,27.425978 C16.8495558,26.937581 16.3099276,26.150522 15.979341,24.9071162 C15.9580099,24.791943 15.9388147,24.6853037 15.9196196,24.5722654 C17.6749003,23.4290506 19.4579725,21.7228006 20.8400076,19.8736625 C21.2601546,19.3084979 21.6419288,18.7326317 21.9767796,18.1525067 C22.2839046,18.4191185 22.6400659,18.7049277 23.047431,18.9928553 C22.8981366,20.6820701 22.8490785,22.454386 23.0772901,24.1116052 L23.0772901,24.1116052 L30.8768999,25.6920021 C31.6532573,25.8497961 32.3058856,26.3552829 32.6492705,27.0697785 C32.7047223,27.1870812 32.7473796,27.3065186 32.7857705,27.4259561 L32.7857705,27.4259561 L38.5313284,27.4259561 L36.526471,21.7737643 L32.1264755,21.7737643 C31.8214963,21.7737643 31.5527606,21.6351294 31.3672079,21.4218509 C32.4101771,21.3983893 33.4936595,21.2789518 34.6005653,21.0614035 L34.6005653,21.0614035 C35.1300001,20.9593976 35.5885473,20.6544075 35.8871383,20.2086477 C35.9831142,20.0657485 36.0577633,19.912186 36.1132151,19.7543593 L36.1132151,19.7543593 L37.9517062,19.7543593 L42.6396075,32.975749 C43.3690089,32.8008597 44.1261471,32.7048839 44.9088927,32.7048839 C50.2600748,32.7070679 54.5982085,37.042963 54.5982085,42.3941997 C54.5960245,47.7453817 50.2601294,52.0835155 44.9088927,52.0835155 C39.5577106,52.0813315 35.2195769,47.7454363 35.2195769,42.3941997 C35.2212149,38.5356723 37.4736833,35.2063828 40.7369068,33.6472798 L40.7369068,33.6472798 L39.459376,30.0449357 L31.1072142,38.8874055 L30.8768677,42.6496731 C30.7936573,43.9890656 29.6824927,45.0192038 28.3601354,45.0192038 C28.3089479,45.0192038 28.2577582,45.0192038 28.204438,45.0149379 C27.1892602,44.9530761 26.3531759,44.2961835 26.0076617,43.4046747 L26.0076617,43.4046747 L19.3257138,43.4046747 C18.8206638,48.2805638 14.6998927,52.0835155 9.68990602,52.0835155 C4.33872393,52.0811606 0.000590225985,47.7451562 0.000590225985,42.3940288 C0.000590225985,37.0429013 4.33861473,32.706897 9.68772202,32.706897 C10.9098338,32.706897 12.0786014,32.9351195 13.1556955,33.3488838 L13.1556955,33.3488838 L15.1413337,29.443728 L13.6142263,29.443728 C13.2260749,29.7700722 12.8016309,30.0835909 12.3473426,30.3864516 C11.393972,31.0220557 9.99058821,30.8919439 8.67461904,30.1155865 C7.20511467,29.2496851 5.84653566,27.5796895 5.34958831,25.271966 C4.54314633,21.5223111 11.1571172,17.523298 13.0574701,16.4611642 C13.3731291,16.2841401 13.5586818,16.1881642 13.5586818,16.1881642 C13.5586818,16.1881642 13.6226675,16.4078309 13.7250425,16.7768068 C14.1324131,16.1348746 14.7295733,15.2454406 15.4419395,14.3411554 L15.4419395,14.3411554 L15.5677761,14.4435304 L16.0711225,14.8402322 C16.7493124,13.9828484 17.5235404,13.1211512 18.306286,12.489866 C18.502502,12.3320393 18.6965886,12.191275 18.8885404,12.0654384 Z M9.68940315,34.7242342 C7.567265,34.7242342 5.65626504,35.5794886 4.26565767,36.970096 C2.8771797,38.3607034 2.01979592,40.2717033 2.01979592,42.3938415 C2.01979592,44.5159796 2.8750503,46.4269796 4.26565767,47.817587 C5.65626504,49.2060649 7.567265,50.0634487 9.68940315,50.0634487 C11.8115413,50.0634487 13.7225413,49.2081943 15.1131486,47.817587 C16.2777191,46.6508887 17.0668802,45.1195226 17.2886927,43.404755 L17.2886927,43.404755 L9.68728085,43.404755 C9.3375078,43.404755 9.0111909,43.2213372 8.82776767,42.9227408 C8.64434825,42.6241334 8.62941515,42.2508987 8.78937677,41.9373746 L8.78937677,41.9373746 L12.2360017,35.1593307 C11.4404251,34.8777967 10.5830413,34.7242342 9.68940315,34.7242342 Z M44.9095902,34.7238337 L44.5848078,34.7313141 C44.1528488,34.7495427 43.7307104,34.8038159 43.3195026,34.8908352 L43.3195026,34.8908352 L45.8617877,42.0570851 C46.0473185,42.5817911 45.772211,43.1597648 45.2475377,43.3453174 C45.1366287,43.3837083 45.0235904,43.4029041 44.910552,43.4029041 C44.4946474,43.4029041 44.1064742,43.1448153 43.9593108,42.7310511 L43.9593108,42.7310511 L41.4191551,35.5648012 C40.7025301,35.9316586 40.0520257,36.4050952 39.4868065,36.9703144 C38.0983285,38.3609218 37.2409448,40.2719217 37.2409448,42.3940599 C37.2409448,44.516198 38.0961991,46.427198 39.4868065,47.8178054 C40.8774139,49.2062833 42.7884138,50.0636671 44.910552,50.0636671 C47.0326901,50.0636671 48.9436901,49.2084127 50.3342975,47.8178054 C51.7227754,46.427198 52.5801592,44.516198 52.5801592,42.3940599 C52.5801592,40.2719217 51.7249048,38.3609218 50.3342975,36.9703144 C48.9436901,35.5818364 47.0305607,34.7244526 44.910552,34.7244526 L44.9095902,34.7238337 Z M20.9997055,29.4414114 L17.4059336,29.4414114 L14.955371,34.2637193 C17.3505092,35.8187273 19.0162405,38.3992324 19.3255003,41.3851971 L19.3255003,41.3851971 L25.8987942,41.3851971 L25.9990343,39.7557148 C25.9094576,39.764246 25.8220102,39.7706446 25.7324334,39.7706446 C25.3463569,39.7706446 24.9539357,39.6810678 24.5870893,39.4933803 C23.345802,38.8577818 22.8552319,37.339192 23.4887011,36.0979156 L23.4887011,36.0979156 L25.1757319,32.7963083 L20.9997055,29.4414114 Z M14.0340343,36.0744376 L11.3339005,41.3851611 L17.2908696,41.3851065 C17.0669004,39.6703389 16.2777666,38.1368434 15.1132578,36.9702052 C14.7805254,36.6396568 14.4200726,36.3410385 14.0340343,36.0744376 L14.0340343,36.0744376 Z M37.2557741,29.4435954 L32.5593006,29.4435954 L31.3542786,31.8024791 C31.4566531,32.1053453 31.5057079,32.4316567 31.4843795,32.7601085 L31.4843795,32.7601085 L31.3009563,35.7460732 L37.2557741,29.4435954 Z M6.80791005,17.2183826 L7.68871723,19.3682576 C6.99982905,19.9697312 6.35147044,20.6202356 5.82893207,21.3006061 L5.82893207,21.3006061 L4.7284145,19.6050032 L6.80791005,17.2183826 Z M20.0078442,11.5984173 C20.8332323,11.2592967 21.7780908,11.6517615 22.1172059,12.4771497 C22.1193391,12.4814156 22.1214718,12.4878142 22.1257377,12.4963454 C22.1364011,12.5262007 22.1598627,12.5752588 22.1939877,12.6413739 C22.2601028,12.7735933 22.368877,12.9783433 22.5245743,13.2300165 C22.8338287,13.7333739 23.3244097,14.4158739 24.0218155,15.0919857 C25.4314875,16.4441328 27.5666751,17.7814298 31.0154294,17.794227 C31.8877736,17.794227 32.8475324,17.7046502 33.9054073,17.4977654 C34.7798809,17.3271404 35.6287471,17.8986932 35.7993721,18.7731667 C35.9699971,19.6476403 35.3984443,20.4965065 34.5239707,20.6671315 C33.2741222,20.9124056 32.1053546,21.0233091 31.0133546,21.0233091 L31.0133546,21.0233091 L30.972831,21.0233091 C26.6493847,21.0233091 23.6058716,19.208296 21.7716392,17.4081886 C19.9182423,15.5995636 19.1845603,13.8357544 19.1291085,13.7077829 L19.1291085,13.7077829 C18.7899912,12.8823909 19.182456,11.9375324 20.0078442,11.5984173 Z M9.58721379,15.4993017 L10.0329682,17.5766678 C9.4507138,17.9712074 8.83007561,18.4233828 8.22434322,18.9160604 L8.22434322,18.9160604 L7.55674904,16.6403324 L9.58721379,15.4993017 Z M12.5154117,14.4389697 L12.5516607,16.0300137 C12.1506783,16.249724 11.4255357,16.6634828 10.5681519,17.2201298 L10.5681519,17.2201298 L10.3996618,15.0979917 L12.5154117,14.4389697 Z M16.5764668,13.0146796 C17.5404844,10.4787826 19.7415742,9.55099215 21.3603549,9.84105465 C22.9855239,10.1332192 23.894117,12.1829032 23.6573769,14.1109384 C23.527276,13.955241 23.4099734,13.8080776 23.3054635,13.6651785 C23.2393429,12.7651521 22.8810577,11.9311917 22.1665621,11.3105536 C21.6717769,10.8733168 21.0937813,10.6664341 20.5179152,10.6685668 C19.5645446,10.6728256 18.655946,11.176183 17.8006916,11.8629417 C17.3784316,12.2041972 16.9689043,12.5966456 16.5764668,13.0146796 Z M20.6751086,1.71477302 C22.4199061,-0.0874691981 25.2949237,-0.134370597 27.0971604,1.61026317 C27.4149488,1.91525876 27.6751505,2.25865453 27.8820354,2.62336614 C28.0503945,2.65118157 28.2167552,2.67890799 28.3767168,2.70450174 C30.5841948,3.08413553 32.1240889,3.57681316 32.0835654,3.93938991 C32.057958,4.16333181 31.4373198,4.29770132 30.443436,4.33609167 C29.338605,4.38088005 27.7752433,4.30623093 26.0519581,4.10788005 C24.6720523,3.95003145 23.4136862,3.73675294 22.4198024,3.50640646 C23.4456818,3.89674186 24.9173701,4.32542829 26.5702759,4.68800504 C27.2293525,4.83303902 27.8670259,4.99939975 28.4642406,5.16788989 C28.39812,6.20441627 27.9779731,7.22390744 27.1994863,8.03013103 C25.4547433,9.83237325 22.5818552,9.87927465 20.7796184,8.13464088 C18.9773762,6.39202732 18.9304748,3.51700978 20.6751086,1.71477302 Z" id="Combined-Shape"></path>
            </g>
        </g>
    </g>
</svg>