<?xml version="1.0" encoding="UTF-8"?>
<svg width="52px" height="58px" viewBox="0 0 52 58" version="1.1" xmlns="http://www.w3.org/2000/svg" xmlns:xlink="http://www.w3.org/1999/xlink">
    <!-- Generator: Sketch 63.1 (92452) - https://sketch.com -->
    <title>np_uk_2518810_FFF8E4</title>
    <desc>Created with Sketch.</desc>
    <g id="Page-1" stroke="none" stroke-width="1" fill="none" fill-rule="evenodd">
        <g id="together" transform="translate(-653.000000, -155.000000)" fill="#FFF8E4" fill-rule="nonzero">
            <g id="np_uk_2518810_FFF8E4" transform="translate(653.000000, 155.000000)">
                <path d="M18.2388007,30.3612012 L6.71940027,30.3612012 C3.78036015,30.3612012 1.31940005,32.5807213 0.958440038,35.5221614 L0.299820012,42.5391617 C0.238884009,43.2586817 0.660756026,43.8586817 1.38030005,43.9782017 C2.16078009,44.1586698 3.18030013,44.2782018 4.19982017,44.3977338 L4.79982019,55.6171342 C4.86075619,56.5780942 5.63886022,57.2976143 6.59982026,57.2976143 L11.9998205,57.2976143 C12.9607805,57.2976143 13.7388605,56.5780942 13.7998205,55.6171342 L14.6998206,36.4171334 C14.6998206,35.4561734 15.4803006,34.6780934 16.4388607,34.6780934 L18.1779007,34.6780934 L18.1802443,30.3609132 L18.2388007,30.3612012 Z" id="Path"></path>
                <path d="M15.1806006,22.8612009 C15.1806006,26.107321 12.5485805,28.7393411 9.30012037,28.7393411 C6.05166024,28.7393411 3.41964014,26.107321 3.41964014,22.8612009 C3.41964014,19.6127408 6.05166024,16.9807207 9.30012037,16.9807207 C12.5485805,16.9807207 15.1806006,19.6127408 15.1806006,22.8612009" id="Path"></path>
                <path d="M49.138802,3.71952015 L22.5000009,3.71952015 L22.3804689,3.71952015 L22.3804689,1.38048005 C22.3804689,0.780480031 21.9000009,0.300000012 21.2999888,0.300000012 C20.6999768,0.300000012 20.2195088,0.780468031 20.2195088,1.38048005 L20.2195088,54.4192822 L19.0195088,54.4192822 C17.7585487,54.4192822 16.7390287,55.4388022 16.7390287,56.6997623 C16.7390287,56.9997623 16.9780927,57.2997623 17.3390287,57.2997623 L25.377829,57.2997623 C25.677829,57.2997623 25.977829,57.0606983 25.977829,56.6997623 C25.977829,55.4388022 24.958309,54.4192822 23.6973489,54.4192822 L22.4973489,54.4192822 L22.4996925,34.6804814 L24.4192126,34.6804814 C24.7801486,34.6804814 25.1387326,34.4414174 25.2582526,34.1414174 L26.2192126,31.5023773 C26.3996806,30.9633132 26.0387446,30.3633372 25.3801726,30.3633372 L22.4411325,30.3633372 L22.4411325,25.263337 L22.5606645,25.263337 L49.1994656,25.263337 C50.3994656,25.263337 51.4189856,24.243817 51.4189856,23.0438169 L51.4189856,5.93901624 C51.3603914,4.68039619 50.3385056,3.71949615 49.1385056,3.71949615 L49.138802,3.71952015 Z M33.7800013,23.2807209 L32.6409613,23.2807209 L32.6409613,18.7807207 L25.979761,23.2807209 L23.6407209,23.2807209 L32.0407213,17.6416807 L30.2407212,17.6416807 L22.3213209,22.9807209 L22.3213209,21.3612008 L27.8408411,17.6416807 L22.3213209,17.6416807 L22.3213209,16.5026407 L33.7213213,16.5026407 L33.7189777,23.2808409 L33.7800013,23.2807209 Z M33.7800013,12.4807205 L22.3800009,12.4807205 L22.3800009,11.3416805 L27.8995211,11.3416805 L22.3800009,7.6221603 L22.3800009,6.06120024 L30.2412012,11.3416805 L32.0412013,11.3416805 L23.7024009,5.70264023 L26.041441,5.70264023 L32.6390413,10.2003002 L32.6390413,5.70030023 L33.7780813,5.70030023 L33.7800013,12.4807205 Z M49.318802,17.6393407 L43.6797617,17.6393407 L49.318802,21.4198209 L49.318802,23.0393409 L41.3382016,17.6393407 L39.5382016,17.6393407 L47.9382019,23.2783809 L45.5991618,23.2783809 L38.9379615,18.7783807 L38.9379615,23.2783809 L37.7989215,23.2807245 L37.7989215,16.5001243 L49.318322,16.5001243 L49.318802,17.6393407 Z M49.318802,7.5611403 L43.6797617,11.3416205 L49.318802,11.3416205 L49.318802,12.4806605 L37.7994015,12.4806605 L37.7994015,5.70006023 L38.9384415,5.70006023 L38.9384415,10.2000602 L45.5996418,5.70006023 L47.9386819,5.70006023 L39.5998816,11.3391005 L41.3998816,11.3391005 L49.319282,6.00006024 L49.318802,7.5611403 Z" id="Shape"></path>
            </g>
        </g>
    </g>
</svg>