<?xml version="1.0" encoding="UTF-8"?>
<svg width="18px" height="15px" viewBox="0 0 18 15" version="1.1" xmlns="http://www.w3.org/2000/svg" xmlns:xlink="http://www.w3.org/1999/xlink">
    <!-- Generator: Sketch 63.1 (92452) - https://sketch.com -->
    <title>twitter</title>
    <desc>Created with Sketch.</desc>
    <g id="Page-1" stroke="none" stroke-width="1" fill="none" fill-rule="evenodd">
        <path d="M16.1497896,3.73826764 C16.1612155,3.9023223 16.1612155,4.06641304 16.1612155,4.23046771 C16.1612155,9.23435144 12.4492986,15 5.66499479,15 C3.57487725,15 1.63326029,14.3788792 0,13.3008006 C0.296966004,13.3359345 0.582471025,13.3476579 0.890862855,13.3476579 C2.61545944,13.3476579 4.20305157,12.7500198 5.47082606,11.7304857 C3.8489916,11.6953157 2.48984566,10.6054776 2.02156258,9.10546681 C2.25000879,9.14060076 2.47841984,9.16404745 2.71829187,9.16404745 C3.04950019,9.16404745 3.38074367,9.11715408 3.68910035,9.03516282 C1.99874609,8.68357073 0.730936449,7.16014929 0.730936449,5.32030579 L0.730936449,5.27344849 C1.22203602,5.55470052 1.79315154,5.73047853 2.39843906,5.75388914 C1.40477892,5.07418772 0.753788101,3.91404565 0.753788101,2.60153618 C0.753788101,1.89842414 0.936495846,1.25389275 1.2563135,0.691388693 C3.07231669,2.98826223 5.80203438,4.48823698 8.86292525,4.65232771 C8.80583127,4.37107569 8.7715538,4.07813639 8.7715538,3.78516101 C8.7715538,1.69919945 10.4162399,0 12.4606541,0 C13.5228341,0 14.4822167,0.457030038 15.1560944,1.19531211 C15.9898281,1.03125744 16.7893195,0.71483538 17.4974746,0.281252029 C17.2233251,1.16017815 16.6408541,1.89846021 15.8756401,2.36717752 C16.6180376,2.28518626 17.3375833,2.07420215 18,1.78126285 C17.4975449,2.53123219 16.8693354,3.1991742 16.1497896,3.73826764 Z" id="twitter" fill="#B31B17" fill-rule="nonzero"></path>
    </g>
</svg>