<?xml version="1.0" encoding="UTF-8"?>
<svg width="15px" height="18px" viewBox="0 0 15 18" version="1.1" xmlns="http://www.w3.org/2000/svg" xmlns:xlink="http://www.w3.org/1999/xlink">
    <!-- Generator: Sketch 63.1 (92452) - https://sketch.com -->
    <title>discord</title>
    <desc>Created with Sketch.</desc>
    <g id="Page-1" stroke="none" stroke-width="1" fill="none" fill-rule="evenodd">
        <path d="M9.95142857,8.55 C9.95142857,9.099 9.56571429,9.549 9.07714286,9.549 C8.59714286,9.549 8.20285714,9.099 8.20285714,8.55 C8.20285714,8.001 8.58857143,7.551 9.07714286,7.551 C9.56571429,7.551 9.95142857,8.001 9.95142857,8.55 Z M5.94857143,7.551 C5.46,7.551 5.07428571,8.001 5.07428571,8.55 C5.07428571,9.099 5.46857143,9.549 5.94857143,9.549 C6.43714286,9.549 6.82285714,9.099 6.82285714,8.55 C6.83142857,8.001 6.43714286,7.551 5.94857143,7.551 Z M15,1.854 L15,18 C12.8406027,15.9963047 13.5312054,16.6595625 11.0228571,14.211 L11.4771429,15.876 L1.75714286,15.876 C0.788571429,15.876 0,15.048 0,14.022 L0,1.854 C0,0.828 0.788571429,0 1.75714286,0 L13.2428571,0 C14.2114286,0 15,0.828 15,1.854 Z M12.5571429,10.386 C12.5571429,7.488 11.3228571,5.139 11.3228571,5.139 C10.0885714,4.167 8.91428571,4.19392521 8.91428571,4.19392521 L8.79428571,4.338 C10.2514286,4.806 10.9285714,5.481 10.9285714,5.481 C8.89248884,4.30927734 6.50075893,4.30906641 4.52571429,5.22 C4.20857143,5.373 4.02,5.481 4.02,5.481 C4.02,5.481 4.73142857,4.77 6.27428571,4.302 L6.18857143,4.19392521 C6.18857143,4.19392521 5.01428571,4.167 3.78,5.139 C3.78,5.139 2.54571429,7.488 2.54571429,10.386 C2.54571429,10.386 3.26571429,11.691 5.16,11.754 C5.16,11.754 5.47714286,11.349 5.73428571,11.007 C4.64571429,10.665 4.23428571,9.945 4.23428571,9.945 C4.36037946,10.0376719 4.56830357,10.1578008 4.58571429,10.17 C6.03247768,11.0207109 8.08754464,11.2994297 9.93428571,10.485 C10.2342857,10.368 10.5685714,10.197 10.92,9.954 C10.92,9.954 10.4914286,10.692 9.36857143,11.025 C9.62571429,11.367 9.93428571,11.754 9.93428571,11.754 C11.8285714,11.691 12.5571429,10.386 12.5571429,10.386 L12.5571429,10.386 Z" id="discord" fill="#B31B17" fill-rule="nonzero"></path>
    </g>
</svg>