<?xml version="1.0" encoding="UTF-8"?>
<svg width="18px" height="18px" viewBox="0 0 18 18" version="1.1" xmlns="http://www.w3.org/2000/svg" xmlns:xlink="http://www.w3.org/1999/xlink">
    <!-- Generator: Sketch 63.1 (92452) - https://sketch.com -->
    <title>github</title>
    <desc>Created with Sketch.</desc>
    <g id="Page-1" stroke="none" stroke-width="1" fill="none" fill-rule="evenodd">
        <path d="M6.02056452,14.4935737 C6.02056452,14.5680142 5.93709677,14.6275667 5.83185484,14.6275667 C5.71209677,14.6387327 5.62862903,14.5791803 5.62862903,14.4935737 C5.62862903,14.4191331 5.71209677,14.3595807 5.81733871,14.3595807 C5.92620968,14.3484146 6.02056452,14.4079671 6.02056452,14.4935737 Z M4.89193548,14.3260825 C4.86653226,14.400523 4.9391129,14.4861296 5.04798387,14.5084618 C5.14233871,14.5456821 5.25120968,14.5084618 5.27298387,14.4340212 C5.29475806,14.3595807 5.22580645,14.2739741 5.11693548,14.2404758 C5.02258065,14.2144216 4.91733871,14.2516419 4.89193548,14.3260825 Z M6.49596774,14.262808 C6.39072581,14.2888622 6.31814516,14.3595807 6.32903226,14.4451873 C6.33991935,14.5196279 6.43427419,14.5680142 6.54314516,14.54196 C6.6483871,14.5159058 6.72096774,14.4451873 6.71008065,14.3707468 C6.69919355,14.3000283 6.60120968,14.2516419 6.49596774,14.262808 Z M8.88387097,0 C3.85040323,0 0,3.91929458 0,9.08174622 C0,13.2094743 2.53306452,16.7416781 6.15120968,17.9848351 C6.61572581,18.0704418 6.77903226,17.7764016 6.77903226,17.5344698 C6.77903226,17.3037042 6.76814516,16.0307709 6.76814516,15.2491452 C6.76814516,15.2491452 4.22782258,15.8074493 3.69435484,14.1399811 C3.69435484,14.1399811 3.28064516,13.0568712 2.68548387,12.7777192 C2.68548387,12.7777192 1.85443548,12.1933609 2.74354839,12.204527 C2.74354839,12.204527 3.64717742,12.2789675 4.14435484,13.16481 C4.9391129,14.6015125 6.27096774,14.1883675 6.78991935,13.9427137 C6.8733871,13.3471893 7.10927419,12.9340443 7.37056452,12.6883905 C5.34193548,12.4576248 3.29516129,12.1561406 3.29516129,8.57555053 C3.29516129,7.55199306 3.57096774,7.03835332 4.1516129,6.38327654 C4.05725806,6.14134478 3.74879032,5.14384151 4.24596774,3.85602012 C5.00443548,3.61408835 6.75,4.86096744 6.75,4.86096744 C7.47580645,4.65253392 8.25604839,4.54459514 9.02903226,4.54459514 C9.80201613,4.54459514 10.5822581,4.65253392 11.3080645,4.86096744 C11.3080645,4.86096744 13.053629,3.61036632 13.8120968,3.85602012 C14.3092742,5.14756353 14.0008065,6.14134478 13.9064516,6.38327654 C14.4870968,7.04207535 14.8427419,7.55571509 14.8427419,8.57555053 C14.8427419,12.1673067 12.7052419,12.4539028 10.6766129,12.6883905 C11.0104839,12.9824307 11.2935484,13.5407347 11.2935484,14.4154111 C11.2935484,15.6697343 11.2826613,17.2218196 11.2826613,17.5270258 C11.2826613,17.7689576 11.4495968,18.0629977 11.9104839,17.9773911 C15.5395161,16.7416781 18,13.2094743 18,9.08174622 C18,3.91929458 13.9173387,0 8.88387097,0 Z M3.52741935,12.8372716 C3.48024194,12.8744919 3.49112903,12.9600985 3.55282258,13.030817 C3.6108871,13.0903694 3.69435484,13.1164236 3.74153226,13.0680373 C3.78870968,13.030817 3.77782258,12.9452104 3.71612903,12.8744919 C3.65806452,12.8149394 3.57459677,12.7888852 3.52741935,12.8372716 Z M3.13548387,12.5357874 C3.11008065,12.5841738 3.14637097,12.6437262 3.21895161,12.6809465 C3.27701613,12.7181667 3.34959677,12.7070007 3.375,12.6548923 C3.40040323,12.6065059 3.3641129,12.5469535 3.29153226,12.5097332 C3.21895161,12.487401 3.1608871,12.4985671 3.13548387,12.5357874 Z M4.31129032,13.8608291 C4.25322581,13.9092154 4.275,14.0208762 4.35846774,14.0915947 C4.44193548,14.1772014 4.54717742,14.1883675 4.59435484,14.128815 C4.64153226,14.0804287 4.61975806,13.9687679 4.54717742,13.8980493 C4.46733871,13.8124427 4.35846774,13.8012766 4.31129032,13.8608291 Z M3.89758065,13.3136911 C3.83951613,13.3509113 3.83951613,13.4476841 3.89758065,13.5332907 C3.95564516,13.6188973 4.05362903,13.6561176 4.10080645,13.6188973 C4.15887097,13.5705109 4.15887097,13.4737382 4.10080645,13.3881316 C4.05,13.302525 3.95564516,13.2653047 3.89758065,13.3136911 Z" id="github" fill="#B31B17" fill-rule="nonzero"></path>
    </g>
</svg>