<?xml version="1.0" encoding="UTF-8"?>
<svg width="663px" height="647px" viewBox="0 0 663 647" version="1.1" xmlns="http://www.w3.org/2000/svg" xmlns:xlink="http://www.w3.org/1999/xlink">
    <!-- Generator: Sketch 63.1 (92452) - https://sketch.com -->
    <title>newHeroImageonly</title>
    <desc>Created with Sketch.</desc>
    <defs>
        <linearGradient x1="65.3311548%" y1="46.6449946%" x2="45.0521737%" y2="56.0133367%" id="linearGradient-1">
            <stop stop-color="#071F35" offset="36%"></stop>
            <stop stop-color="#4886C6" stop-opacity="0" offset="100%"></stop>
        </linearGradient>
        <linearGradient x1="0.0131306151%" y1="49.9802141%" x2="100.018314%" y2="49.9802141%" id="linearGradient-2">
            <stop stop-color="#FBE1CD" offset="0%"></stop>
            <stop stop-color="#FBE1CD" stop-opacity="0" offset="100%"></stop>
        </linearGradient>
        <linearGradient x1="50.0067323%" y1="50.0204091%" x2="49.9557785%" y2="49.8837184%" id="linearGradient-3">
            <stop stop-color="#004A6A" stop-opacity="0" offset="2.18%"></stop>
            <stop stop-color="#04344F" stop-opacity="0.3831" offset="39.65%"></stop>
            <stop stop-color="#06253C" stop-opacity="0.7466" offset="75.21%"></stop>
            <stop stop-color="#071F35" offset="100%"></stop>
        </linearGradient>
        <linearGradient x1="50.0067567%" y1="50.0202926%" x2="49.9558923%" y2="49.8840911%" id="linearGradient-4">
            <stop stop-color="#004A6A" stop-opacity="0" offset="2.18%"></stop>
            <stop stop-color="#04344F" stop-opacity="0.3831" offset="39.65%"></stop>
            <stop stop-color="#06253C" stop-opacity="0.7466" offset="75.21%"></stop>
            <stop stop-color="#071F35" offset="100%"></stop>
        </linearGradient>
        <linearGradient x1="50.0081674%" y1="50.0224231%" x2="49.9550795%" y2="49.8717005%" id="linearGradient-5">
            <stop stop-color="#004A6A" stop-opacity="0" offset="2.18%"></stop>
            <stop stop-color="#04344F" stop-opacity="0.3831" offset="39.65%"></stop>
            <stop stop-color="#06253C" stop-opacity="0.7466" offset="75.21%"></stop>
            <stop stop-color="#071F35" offset="100%"></stop>
        </linearGradient>
        <linearGradient x1="110.26312%" y1="68.6368847%" x2="122.62616%" y2="83.6772116%" id="linearGradient-6">
            <stop stop-color="#4886C6" stop-opacity="0" offset="0%"></stop>
            <stop stop-color="#4284CD" stop-opacity="0.1545" offset="15.45%"></stop>
            <stop stop-color="#317FE0" stop-opacity="0.6523" offset="65.23%"></stop>
            <stop stop-color="#2B7DE7" offset="100%"></stop>
        </linearGradient>
        <linearGradient x1="20.6278136%" y1="22.2272416%" x2="81.1064897%" y2="98.6684274%" id="linearGradient-7">
            <stop stop-color="#4886C6" stop-opacity="0" offset="0%"></stop>
            <stop stop-color="#4284CD" stop-opacity="0.1545" offset="15.45%"></stop>
            <stop stop-color="#317FE0" stop-opacity="0.6523" offset="65.23%"></stop>
            <stop stop-color="#2B7DE7" offset="100%"></stop>
        </linearGradient>
    </defs>
    <g id="Page-1" stroke="none" stroke-width="1" fill="none" fill-rule="evenodd">
        <g id="Charity-box-illustration" transform="translate(-334.000000, -93.000000)">
            <g id="newHeroImageonly" transform="translate(242.110000, 93.360000)">
                <rect id="Rectangle" fill="#071F35" fill-rule="nonzero" x="224.06" y="35.01" width="312.75" height="527.02"></rect>
                <rect id="Rectangle" fill="#F2F1E6" fill-rule="nonzero" x="233.4" y="45.75" width="293.15" height="516.28"></rect>
                <g id="Group-4" transform="translate(92.430000, 562.490000)" fill="#004A6A" fill-rule="nonzero" stroke="#004A6A" stroke-linecap="round" stroke-linejoin="round" stroke-width="0.75">
                    <rect id="Rectangle" x="63.29" y="3.19744231e-14" width="598.16" height="27.43"></rect>
                    <rect id="Rectangle" x="27.42" y="27.43" width="634.02" height="27.43"></rect>
                    <rect id="Rectangle" x="0" y="54.88" width="661.45" height="28.68"></rect>
                </g>
                <g id="Group" transform="translate(228.890000, 355.640000)">
                    <g id="SVGID_1_-link" transform="translate(124.000000, 1.000000)" fill="#23286B" fill-rule="nonzero">
                        <path d="M6.17,14.58 C2.59,46.72 0.68,79.01 0.01,111.42 C6.95,111.54 13.71,114.83 20.34,120.43 L44.79,119.95 C44.81,95.05 46.18,69.93 48.97,44.58 C50.58,23.75 51.25,76.04 52.2,103.41 L54.62,101.31 L54.62,0.46 C37.64,8.5 21.39,13.6 6.17,14.58 Z" id="SVGID_1_"></path>
                    </g>
                    <g>
                        <rect id="Rectangle" transform="translate(72.257874, 71.903306) rotate(-54.409039) translate(-72.257874, -71.903306) " x="22.4224195" y="19.3428267" width="99.670909" height="105.120959"></rect>
                        <path d="M80.52,31.88 C81.73,30.75 83.85,31.55 82.6,33.29 C81.92,34.17 80.43,34.17 80.25,32.87 C80.19,32.4 80.3,32.09 80.52,31.88 Z" id="Path" fill="#FEF8E4" fill-rule="nonzero"></path>
                        <path d="M43.75,59.02 C43.27,59.89 42.13,60.66 40.77,60.01 C39.86,57.85 42.06,57.58 42.77,57.42 C44.06,57.13 44.24,58.13 43.75,59.02 Z" id="Path" fill="#FEF8E4" fill-rule="nonzero"></path>
                        <path d="M70.32,42.92 C69.84,43.79 68.7,44.56 67.34,43.91 C66.43,41.75 68.63,41.48 69.34,41.32 C70.63,41.03 70.81,42.03 70.32,42.92 Z" id="Path" fill="#FEF8E4" fill-rule="nonzero"></path>
                        <path d="M97.99,65.67 C98.64,65.03 100.01,65.46 100.28,66.32 C101.41,69.95 95.47,68.16 97.99,65.67 Z" id="Path" fill="#FEF8E4" fill-rule="nonzero"></path>
                        <path d="M61.43,99.29 C61.96,100.13 61.78,101.27 61.18,101.32 C58.87,101.51 58.87,98.43 60.02,98.37 C61.03,98.54 61.09,98.75 61.43,99.29 Z" id="Path" fill="#FEF8E4" fill-rule="nonzero"></path>
                        <path d="M70.97,33.38 C71.5,34.22 71.32,35.36 70.72,35.41 C68.41,35.6 68.41,32.52 69.56,32.46 C70.57,32.62 70.63,32.84 70.97,33.38 Z" id="Path" fill="#FEF8E4" fill-rule="nonzero"></path>
                        <path d="M87.09,42.4 C87.62,43.24 87.44,44.38 86.84,44.43 C84.53,44.62 84.53,41.54 85.68,41.48 C86.69,41.65 86.75,41.86 87.09,42.4 Z" id="Path" fill="#FEF8E4" fill-rule="nonzero"></path>
                        <path d="M54.73,42.31 C54.7,42.43 54.65,42.54 54.58,42.62 C54.08,43.23 53.1,42.92 52.68,42.37 C52.19,41.73 52.29,39.49 53.48,39.77 C54.36,39.98 54.92,41.53 54.73,42.31 Z" id="Path" fill="#FEF8E4" fill-rule="nonzero"></path>
                        <path d="M37.81,68.76 C38.28,69.68 37.94,71.06 37.27,71.2 C34.72,71.73 35.12,68.09 36.39,67.86 C37.47,67.92 37.51,68.17 37.81,68.76 Z" id="Path" fill="#FEF8E4" fill-rule="nonzero"></path>
                        <path d="M100.06,55.93 C100.38,57.2 98.47,57.87 97.7,57.42 C96.58,56.13 97.73,55.29 98.53,54.94 C99.23,54.63 99.89,55.26 100.06,55.93 Z" id="Path" fill="#FEF8E4" fill-rule="nonzero"></path>
                        <path d="M89.88,102.02 C90.09,102.85 88.85,103.28 88.35,102.99 C87.62,102.15 88.37,101.61 88.89,101.38 C89.35,101.17 89.77,101.58 89.88,102.02 Z" id="Path" fill="#FEF8E4" fill-rule="nonzero"></path>
                        <path d="M96.28,114.12 C96.49,114.95 95.25,115.38 94.75,115.09 C94.02,114.25 94.77,113.71 95.29,113.48 C95.74,113.27 96.17,113.68 96.28,114.12 Z" id="Path" fill="#FEF8E4" fill-rule="nonzero"></path>
                        <path d="M77.38,35.37 C77.59,36.2 76.35,36.63 75.85,36.34 C75.12,35.5 75.87,34.96 76.39,34.73 C76.84,34.52 77.26,34.93 77.38,35.37 Z" id="Path" fill="#FEF8E4" fill-rule="nonzero"></path>
                        <path d="M37.5,77.07 C37.71,77.9 36.47,78.33 35.97,78.04 C35.24,77.2 35.99,76.66 36.51,76.43 C36.96,76.22 37.39,76.64 37.5,77.07 Z" id="Path" fill="#FEF8E4" fill-rule="nonzero"></path>
                        <path d="M43.64,89.78 C43.54,89.67 43.44,89.53 43.34,89.34 C42.93,88.62 44,87.84 44.75,88.53 C45.36,89.1 44.32,90.56 43.64,89.78 Z" id="Path" fill="#FEF8E4" fill-rule="nonzero"></path>
                        <path d="M36.29,89.54 C36.19,89.43 36.09,89.29 35.99,89.1 C35.58,88.38 36.65,87.6 37.4,88.29 C38,88.86 36.97,90.32 36.29,89.54 Z" id="Path" fill="#FEF8E4" fill-rule="nonzero"></path>
                        <path d="M26.11,72.22 C26.01,72.11 25.91,71.97 25.81,71.78 C25.4,71.06 26.47,70.28 27.22,70.97 C27.82,71.54 26.79,73 26.11,72.22 Z" id="Path" fill="#FEF8E4" fill-rule="nonzero"></path>
                        <path d="M21.85,64.15 C21.75,64.04 21.65,63.9 21.55,63.71 C21.14,62.99 22.21,62.21 22.96,62.9 C23.56,63.47 22.53,64.93 21.85,64.15 Z" id="Path" fill="#FEF8E4" fill-rule="nonzero"></path>
                        <path d="M38.89,96.42 C38.79,96.31 38.69,96.17 38.59,95.98 C38.18,95.26 39.25,94.48 40,95.17 C40.61,95.74 39.57,97.2 38.89,96.42 Z" id="Path" fill="#FEF8E4" fill-rule="nonzero"></path>
                        <path d="M65.83,107.3 C65.08,107.24 64.82,107.99 65.4,108.46 C66.44,109.33 66.95,107.4 65.83,107.3 Z" id="Path" fill="#FEF8E4" fill-rule="nonzero"></path>
                        <path d="M66.77,113 C66.02,112.94 65.76,113.69 66.34,114.16 C67.38,115.02 67.9,113.09 66.77,113 Z" id="Path" fill="#FEF8E4" fill-rule="nonzero"></path>
                        <path d="M94.27,120.13 C93.52,120.07 93.26,120.82 93.84,121.29 C94.88,122.16 95.4,120.23 94.27,120.13 Z" id="Path" fill="#FEF8E4" fill-rule="nonzero"></path>
                        <path d="M77.04,25.03 C76.29,24.97 76.03,25.72 76.61,26.19 C77.66,27.06 78.17,25.12 77.04,25.03 Z" id="Path" fill="#FEF8E4" fill-rule="nonzero"></path>
                        <path d="M57.84,23.83 C57.09,23.77 56.83,24.52 57.41,24.99 C58.45,25.85 58.96,23.92 57.84,23.83 Z" id="Path" fill="#FEF8E4" fill-rule="nonzero"></path>
                        <path d="M62,38.08 C61,37.99 60.66,39 61.42,39.63 C62.82,40.78 63.51,38.21 62,38.08 Z" id="Path" fill="#FEF8E4" fill-rule="nonzero"></path>
                        <path d="M88.98,93.82 C88.9,93.93 88.58,94.18 88,94.12 C87.63,94.08 87.36,93.7 87.26,93.42 C87.04,92.82 87.86,91.78 88.78,92.12 C89.56,92.4 89.34,93.32 88.98,93.82 Z" id="Path" fill="#FEF8E4" fill-rule="nonzero"></path>
                        <path d="M106.26,60.51 C106.38,60.32 106.55,60.16 106.76,60.08 C108.26,59.51 109.18,61.37 107.81,62.33 C106.85,62.14 106.1,62.31 106.11,61.02 C106.11,60.84 106.17,60.66 106.26,60.51 Z" id="Path" fill="#FEF8E4" fill-rule="nonzero"></path>
                        <path d="M94.89,44.85 C95.01,44.66 95.18,44.5 95.39,44.42 C96.89,43.85 97.81,45.71 96.44,46.67 C95.48,46.48 94.73,46.65 94.74,45.36 C94.74,45.18 94.8,45 94.89,44.85 Z" id="Path" fill="#FEF8E4" fill-rule="nonzero"></path>
                        <path d="M96.53,96.11 C96.32,95.97 96.15,95.77 96.06,95.53 C95.47,93.81 97.61,92.83 98.64,94.42 C98.4,95.5 98.56,96.36 97.09,96.3 C96.9,96.29 96.7,96.22 96.53,96.11 Z" id="Path" fill="#FEF8E4" fill-rule="nonzero"></path>
                        <path d="M49.34,102.47 C49.13,102.33 48.96,102.13 48.87,101.89 C48.28,100.17 50.42,99.19 51.45,100.78 C51.21,101.86 51.37,102.72 49.9,102.66 C49.71,102.65 49.51,102.58 49.34,102.47 Z" id="Path" fill="#FEF8E4" fill-rule="nonzero"></path>
                        <path d="M76.18,43.92 C75.97,43.78 75.8,43.58 75.71,43.34 C75.12,41.62 77.26,40.64 78.29,42.23 C78.05,43.31 78.21,44.17 76.74,44.11 C76.55,44.1 76.36,44.03 76.18,43.92 Z" id="Path" fill="#FEF8E4" fill-rule="nonzero"></path>
                        <path d="M42.21,47.48 C41.43,47.81 40.9,48.8 41.77,49.45 C42.99,50.37 44.63,48.44 43.37,47.56 C43.01,47.31 42.59,47.32 42.21,47.48 Z" id="Path" fill="#FEF8E4" fill-rule="nonzero"></path>
                        <path d="M69.91,99.91 C69.13,100.24 68.6,101.23 69.47,101.88 C70.69,102.8 72.33,100.87 71.07,99.99 C70.71,99.74 70.28,99.75 69.91,99.91 Z" id="Path" fill="#FEF8E4" fill-rule="nonzero"></path>
                        <path d="M102.65,85.71 C101.87,86.04 101.34,87.03 102.21,87.68 C103.43,88.6 105.07,86.67 103.81,85.79 C103.45,85.54 103.02,85.55 102.65,85.71 Z" id="Path" fill="#FEF8E4" fill-rule="nonzero"></path>
                        <path d="M79.53,106.25 C78.97,106.49 78.58,107.2 79.21,107.67 C80.09,108.34 81.28,106.94 80.37,106.31 C80.1,106.13 79.79,106.13 79.53,106.25 Z" id="Path" fill="#FEF8E4" fill-rule="nonzero"></path>
                        <path d="M79.28,113.6 C78.72,113.84 78.33,114.55 78.96,115.02 C79.84,115.69 81.03,114.29 80.12,113.66 C79.86,113.48 79.55,113.48 79.28,113.6 Z" id="Path" fill="#FEF8E4" fill-rule="nonzero"></path>
                        <path d="M74.55,102.69 C73.99,102.93 73.6,103.64 74.23,104.11 C75.11,104.78 76.3,103.38 75.39,102.75 C75.13,102.57 74.82,102.57 74.55,102.69 Z" id="Path" fill="#FEF8E4" fill-rule="nonzero"></path>
                        <path d="M57.06,32.48 C56.5,32.72 56.11,33.43 56.74,33.9 C57.62,34.57 58.81,33.17 57.9,32.54 C57.64,32.36 57.33,32.36 57.06,32.48 Z" id="Path" fill="#FEF8E4" fill-rule="nonzero"></path>
                        <path d="M105.2,75.11 C105.02,75.22 104.82,75.28 104.61,75.28 C102.71,75.26 103.02,72.32 105.28,73.45 C106.07,73.86 105.8,74.74 105.2,75.11 Z" id="Path" fill="#FEF8E4" fill-rule="nonzero"></path>
                        <path d="M93.27,63.58 C93.09,63.83 92.39,64.38 91.1,64.25 C90.29,64.17 89.69,63.33 89.46,62.69 C88.97,61.35 90.79,59.05 92.83,59.81 C94.55,60.45 94.06,62.48 93.27,63.58 Z" id="Path" fill="#FEF8E4" fill-rule="nonzero"></path>
                        <path d="M89.01,25.77 C88.88,25.17 88.24,24.67 87.67,25.2 C86.86,25.95 88.02,27.37 88.81,26.58 C89.02,26.36 89.07,26.05 89.01,25.77 Z" id="Path" fill="#FEF8E4" fill-rule="nonzero"></path>
                        <path d="M98.25,37.4 C98.12,36.8 97.48,36.3 96.91,36.83 C96.1,37.58 97.26,39 98.05,38.21 C98.26,37.99 98.31,37.68 98.25,37.4 Z" id="Path" fill="#FEF8E4" fill-rule="nonzero"></path>
                        <path d="M104.77,43.25 C104.64,42.65 104,42.15 103.43,42.68 C102.62,43.43 103.78,44.85 104.57,44.06 C104.79,43.84 104.84,43.53 104.77,43.25 Z" id="Path" fill="#FEF8E4" fill-rule="nonzero"></path>
                        <path d="M29.98,84.53 C29.85,83.93 29.21,83.43 28.64,83.96 C27.83,84.71 28.99,86.13 29.78,85.34 C30,85.12 30.04,84.82 29.98,84.53 Z" id="Path" fill="#FEF8E4" fill-rule="nonzero"></path>
                        <path d="M41.64,40.2 C41.51,39.6 40.87,39.1 40.3,39.63 C39.49,40.38 40.65,41.8 41.44,41.01 C41.65,40.79 41.7,40.48 41.64,40.2 Z" id="Path" fill="#FEF8E4" fill-rule="nonzero"></path>
                        <path d="M35.23,45.64 C35.1,45.04 34.46,44.54 33.89,45.07 C33.08,45.82 34.24,47.24 35.03,46.45 C35.25,46.23 35.3,45.93 35.23,45.64 Z" id="Path" fill="#FEF8E4" fill-rule="nonzero"></path>
                        <path d="M87.62,111.3 C86.62,111.21 86.28,112.22 87.04,112.85 C88.44,114.01 89.13,111.43 87.62,111.3 Z" id="Path" fill="#FEF8E4" fill-rule="nonzero"></path>
                        <path d="M114.94,55.6 C113.94,55.51 113.6,56.52 114.36,57.15 C115.76,58.3 116.45,55.73 114.94,55.6 Z" id="Path" fill="#FEF8E4" fill-rule="nonzero"></path>
                        <path d="M32.71,61.82 C32.63,61.93 32.31,62.18 31.73,62.12 C31.36,62.08 31.09,61.7 30.99,61.42 C30.77,60.82 31.59,59.78 32.51,60.12 C33.28,60.41 33.06,61.33 32.71,61.82 Z" id="Path" fill="#FEF8E4" fill-rule="nonzero"></path>
                        <path d="M37.45,55.19 C37.37,55.3 37.05,55.55 36.47,55.49 C36.1,55.45 35.83,55.07 35.73,54.79 C35.51,54.19 36.33,53.15 37.25,53.49 C38.03,53.77 37.81,54.69 37.45,55.19 Z" id="Path" fill="#FEF8E4" fill-rule="nonzero"></path>
                        <path d="M51.23,32.43 C51.15,32.54 50.83,32.79 50.25,32.73 C49.88,32.69 49.61,32.31 49.51,32.03 C49.29,31.43 50.11,30.39 51.03,30.73 C51.81,31.02 51.58,31.94 51.23,32.43 Z" id="Path" fill="#FEF8E4" fill-rule="nonzero"></path>
                        <path d="M42.22,31 C42.14,31.11 41.82,31.36 41.24,31.3 C40.87,31.26 40.6,30.88 40.5,30.6 C40.28,30 41.1,28.96 42.02,29.3 C42.8,29.59 42.57,30.51 42.22,31 Z" id="Path" fill="#FEF8E4" fill-rule="nonzero"></path>
                        <path d="M50.74,47.13 C50.66,47.24 50.34,47.49 49.76,47.43 C49.39,47.39 49.12,47.01 49.02,46.73 C48.8,46.13 49.62,45.09 50.54,45.43 C51.32,45.72 51.1,46.64 50.74,47.13 Z" id="Path" fill="#FEF8E4" fill-rule="nonzero"></path>
                        <path d="M42.23,64.9 C41.67,65.14 41.28,65.85 41.91,66.32 C42.79,66.99 43.98,65.59 43.07,64.96 C42.81,64.78 42.5,64.78 42.23,64.9 Z" id="Path" fill="#FEF8E4" fill-rule="nonzero"></path>
                        <path d="M106.24,80.61 C105.68,80.85 105.29,81.56 105.92,82.03 C106.8,82.7 107.99,81.3 107.08,80.67 C106.82,80.49 106.51,80.49 106.24,80.61 Z" id="Path" fill="#FEF8E4" fill-rule="nonzero"></path>
                        <path d="M115.01,89.39 C114.45,89.63 114.06,90.34 114.69,90.81 C115.57,91.48 116.76,90.08 115.85,89.45 C115.59,89.27 115.28,89.27 115.01,89.39 Z" id="Path" fill="#FEF8E4" fill-rule="nonzero"></path>
                        <path d="M125.22,71.61 C124.66,71.85 124.27,72.56 124.9,73.03 C125.78,73.7 126.97,72.3 126.06,71.67 C125.8,71.49 125.49,71.5 125.22,71.61 Z" id="Path" fill="#FEF8E4" fill-rule="nonzero"></path>
                        <path d="M104.39,34.13 C103.83,34.37 103.44,35.08 104.07,35.55 C104.95,36.22 106.14,34.82 105.23,34.19 C104.96,34.01 104.66,34.01 104.39,34.13 Z" id="Path" fill="#FEF8E4" fill-rule="nonzero"></path>
                        <path d="M64.56,23.18 C64,23.42 63.61,24.13 64.24,24.6 C65.12,25.27 66.31,23.87 65.4,23.24 C65.14,23.06 64.83,23.07 64.56,23.18 Z" id="Path" fill="#FEF8E4" fill-rule="nonzero"></path>
                        <path d="M48.2,21.51 C47.64,21.75 47.25,22.46 47.88,22.93 C48.76,23.6 49.95,22.2 49.04,21.57 C48.77,21.39 48.47,21.39 48.2,21.51 Z" id="Path" fill="#FEF8E4" fill-rule="nonzero"></path>
                        <path d="M111.71,69.47 C111.15,69.71 110.76,70.42 111.39,70.89 C112.27,71.56 113.46,70.16 112.55,69.53 C112.28,69.35 111.98,69.35 111.71,69.47 Z" id="Path" fill="#FEF8E4" fill-rule="nonzero"></path>
                        <path d="M50.97,108.78 C50.41,109.02 50.02,109.73 50.65,110.2 C51.53,110.87 52.72,109.47 51.81,108.84 C51.54,108.66 51.23,108.66 50.97,108.78 Z" id="Path" fill="#FEF8E4" fill-rule="nonzero"></path>
                        <path d="M100.01,106.14 C100.26,106.81 99.89,107.89 99.41,108.06 C97.56,108.7 98.17,105.87 99.1,105.57 C99.85,105.52 99.85,105.71 100.01,106.14 Z" id="Path" fill="#FEF8E4" fill-rule="nonzero"></path>
                        <path d="M107.19,93.97 C106.44,93.91 106.18,94.66 106.76,95.13 C107.81,96 108.32,94.07 107.19,93.97 Z" id="Path" fill="#FEF8E4" fill-rule="nonzero"></path>
                        <path d="M105.99,113.18 C105.24,113.12 104.98,113.87 105.56,114.34 C106.6,115.21 107.12,113.27 105.99,113.18 Z" id="Path" fill="#FEF8E4" fill-rule="nonzero"></path>
                        <path d="M121.23,46.32 C120.48,46.26 120.22,47.01 120.8,47.48 C121.84,48.35 122.35,46.42 121.23,46.32 Z" id="Path" fill="#FEF8E4" fill-rule="nonzero"></path>
                        <path d="M74.06,17.58 C73.31,17.52 73.05,18.27 73.63,18.74 C74.67,19.61 75.19,17.68 74.06,17.58 Z" id="Path" fill="#FEF8E4" fill-rule="nonzero"></path>
                        <path d="M108.61,102.51 C107.86,102.45 107.6,103.2 108.18,103.67 C109.22,104.54 109.74,102.61 108.61,102.51 Z" id="Path" fill="#FEF8E4" fill-rule="nonzero"></path>
                        <path d="M38.89,105.29 C38.14,105.23 37.88,105.98 38.46,106.45 C39.5,107.32 40.02,105.39 38.89,105.29 Z" id="Path" fill="#FEF8E4" fill-rule="nonzero"></path>
                        <path d="M19.93,87.87 C19.83,87.76 19.73,87.62 19.63,87.43 C19.22,86.71 20.29,85.93 21.04,86.62 C21.64,87.18 20.61,88.64 19.93,87.87 Z" id="Path" fill="#FEF8E4" fill-rule="nonzero"></path>
                        <path d="M31.07,93.33 C30.97,93.22 30.87,93.08 30.77,92.89 C30.36,92.17 31.43,91.39 32.18,92.08 C32.78,92.65 31.75,94.11 31.07,93.33 Z" id="Path" fill="#FEF8E4" fill-rule="nonzero"></path>
                        <path d="M24.53,78.12 C24.4,77.52 23.76,77.02 23.19,77.55 C22.38,78.3 23.54,79.72 24.33,78.93 C24.55,78.71 24.6,78.41 24.53,78.12 Z" id="Path" fill="#FEF8E4" fill-rule="nonzero"></path>
                        <path d="M29.41,101.02 C28.66,100.96 28.4,101.71 28.98,102.18 C30.02,103.04 30.53,101.11 29.41,101.02 Z" id="Path" fill="#FEF8E4" fill-rule="nonzero"></path>
                        <path d="M59.28,104.84 C58.53,104.78 58.27,105.53 58.85,106 C59.9,106.87 60.41,104.93 59.28,104.84 Z" id="Path" fill="#FEF8E4" fill-rule="nonzero"></path>
                        <path d="M55.95,120.01 C55.2,119.95 54.94,120.7 55.52,121.17 C56.56,122.04 57.08,120.11 55.95,120.01 Z" id="Path" fill="#FEF8E4" fill-rule="nonzero"></path>
                        <path d="M72.57,109.68 C71.82,109.62 71.56,110.37 72.14,110.84 C73.18,111.71 73.69,109.78 72.57,109.68 Z" id="Path" fill="#FEF8E4" fill-rule="nonzero"></path>
                        <path d="M75.64,119.4 C74.89,119.34 74.63,120.09 75.21,120.56 C76.25,121.43 76.77,119.5 75.64,119.4 Z" id="Path" fill="#FEF8E4" fill-rule="nonzero"></path>
                        <path d="M58.34,112.04 C57.59,111.98 57.33,112.73 57.91,113.2 C58.95,114.07 59.46,112.13 58.34,112.04 Z" id="Path" fill="#FEF8E4" fill-rule="nonzero"></path>
                        <path d="M117.18,78.89 C116.43,78.83 116.17,79.58 116.75,80.05 C117.79,80.92 118.3,78.99 117.18,78.89 Z" id="Path" fill="#FEF8E4" fill-rule="nonzero"></path>
                        <path d="M118.85,62.53 C118.1,62.47 117.84,63.22 118.42,63.69 C119.46,64.56 119.98,62.63 118.85,62.53 Z" id="Path" fill="#FEF8E4" fill-rule="nonzero"></path>
                        <path d="M88.05,35.47 C87.3,35.41 87.04,36.16 87.62,36.63 C88.66,37.5 89.17,35.57 88.05,35.47 Z" id="Path" fill="#FEF8E4" fill-rule="nonzero"></path>
                        <path d="M84.03,20.05 C83.28,19.99 83.02,20.74 83.6,21.21 C84.64,22.08 85.16,20.15 84.03,20.05 Z" id="Path" fill="#FEF8E4" fill-rule="nonzero"></path>
                        <path d="M80.25,69.86 C81.33,70.57 81.95,72.36 81.43,73.27 C80.64,74.66 79.09,74.96 77.69,74 C76.58,73.23 76.14,71.67 76.74,70.63 C77.22,69.8 79.42,69.32 80.25,69.86 Z" id="Path" fill="#FEF8E4" fill-rule="nonzero"></path>
                        <path d="M57.23,80.99 C58.31,81.7 58.93,83.49 58.41,84.4 C57.62,85.79 56.07,86.09 54.67,85.13 C53.56,84.36 53.12,82.8 53.72,81.76 C54.21,80.93 56.4,80.45 57.23,80.99 Z" id="Path" fill="#FEF8E4" fill-rule="nonzero"></path>
                        <path d="M55.82,72.45 C56.9,73.16 57.52,74.95 57,75.86 C56.21,77.25 54.66,77.55 53.26,76.59 C52.15,75.82 51.71,74.26 52.31,73.22 C52.8,72.39 54.99,71.91 55.82,72.45 Z" id="Path" fill="#FEF8E4" fill-rule="nonzero"></path>
                        <path d="M70.05,70.09 C71.13,70.8 71.75,72.59 71.23,73.5 C70.44,74.89 68.89,75.19 67.49,74.23 C66.38,73.46 65.94,71.9 66.54,70.86 C67.03,70.03 69.22,69.55 70.05,70.09 Z" id="Path" fill="#FEF8E4" fill-rule="nonzero"></path>
                        <path d="M63.34,60.41 C62.66,60.74 61.98,61.34 61.31,61.33 C60.3,61.32 59.51,60.53 59.35,59.53 C59.23,58.79 59.39,57.95 59.62,57.21 C59.99,56.07 61.09,55.64 62.3,55.87 C63.53,56.1 63.71,57.15 63.85,58 C63.98,58.7 63.56,59.49 63.34,60.41 Z" id="Path" fill="#FEF8E4" fill-rule="nonzero"></path>
                        <path d="M55.27,64.67 C54.59,65 53.91,65.6 53.24,65.59 C52.23,65.58 51.44,64.79 51.28,63.79 C51.16,63.05 51.32,62.21 51.55,61.47 C51.92,60.33 53.02,59.9 54.23,60.13 C55.46,60.36 55.64,61.41 55.78,62.26 C55.91,62.97 55.49,63.76 55.27,64.67 Z" id="Path" fill="#FEF8E4" fill-rule="nonzero"></path>
                        <path d="M72.66,81.03 C72.16,81.74 71.99,82.19 71.78,82.22 C71.22,82.28 70.33,82.38 70.11,82.07 C69.22,80.82 69.18,79.37 69.62,77.91 C69.89,77.01 70.83,76.56 71.99,76.78 C72.91,76.95 73.54,77.57 73.44,78.42 C73.32,79.47 72.84,80.48 72.66,81.03 Z" id="Path" fill="#FEF8E4" fill-rule="nonzero"></path>
                        <path d="M63.43,69.4 C62.93,70.11 62.76,70.56 62.55,70.59 C61.99,70.65 61.1,70.75 60.88,70.44 C59.99,69.19 59.95,67.74 60.39,66.28 C60.66,65.38 61.6,64.93 62.76,65.15 C63.68,65.32 64.31,65.94 64.21,66.79 C64.08,67.84 63.6,68.85 63.43,69.4 Z" id="Path" fill="#FEF8E4" fill-rule="nonzero"></path>
                        <path d="M77.66,67.04 C77.16,67.75 76.99,68.2 76.78,68.23 C76.22,68.29 75.33,68.39 75.11,68.08 C74.22,66.83 74.18,65.38 74.62,63.92 C74.89,63.02 75.83,62.57 76.99,62.79 C77.91,62.96 78.54,63.58 78.44,64.43 C78.31,65.48 77.83,66.49 77.66,67.04 Z" id="Path" fill="#FEF8E4" fill-rule="nonzero"></path>
                        <path d="M71.2,59.69 C71.42,60.48 71.85,61.25 71.77,61.96 C71.57,63.75 70.2,64.64 68.67,65.23 C68.42,65.32 67.7,64.93 67.66,64.68 C67.27,62.2 67.92,60.72 69.71,59.91 C70.11,59.73 70.6,59.77 71.2,59.69 Z" id="Path" fill="#FEF8E4" fill-rule="nonzero"></path>
                        <path d="M65.02,75.33 C65.24,76.12 65.67,76.89 65.59,77.6 C65.39,79.39 64.02,80.28 62.49,80.87 C62.24,80.96 61.52,80.57 61.48,80.32 C61.09,77.84 61.74,76.36 63.53,75.55 C63.93,75.38 64.42,75.41 65.02,75.33 Z" id="Path" fill="#FEF8E4" fill-rule="nonzero"></path>
                        <path d="M83.77,56.14 C83.99,56.93 84.42,57.7 84.34,58.41 C84.14,60.2 82.77,61.09 81.24,61.68 C80.99,61.77 80.27,61.38 80.23,61.13 C79.84,58.65 80.49,57.17 82.28,56.36 C82.68,56.18 83.17,56.22 83.77,56.14 Z" id="Path" fill="#FEF8E4" fill-rule="nonzero"></path>
                        <path d="M79.48,78.01 C80.12,78.51 80.41,80.86 79.74,81.07 C78.79,81.37 77.44,81.45 76.66,80.97 C75.71,80.38 76.58,79.24 76.9,78.4 C77.13,77.79 78.93,77.58 79.48,78.01 Z" id="Path" fill="#FEF8E4" fill-rule="nonzero"></path>
                        <path d="M93.47,83 C94.11,83.5 94.4,85.85 93.73,86.06 C92.78,86.36 91.43,86.44 90.65,85.96 C89.7,85.37 90.57,84.23 90.89,83.39 C91.12,82.79 92.91,82.57 93.47,83 Z" id="Path" fill="#FEF8E4" fill-rule="nonzero"></path>
                        <path d="M62.63,91.04 C63.27,91.54 63.56,93.89 62.89,94.1 C61.94,94.4 60.59,94.48 59.81,94 C58.86,93.41 59.73,92.27 60.05,91.43 C60.28,90.82 62.08,90.61 62.63,91.04 Z" id="Path" fill="#FEF8E4" fill-rule="nonzero"></path>
                        <path d="M88.02,76.6 C88.66,77.1 88.95,79.45 88.28,79.66 C87.33,79.96 85.98,80.04 85.2,79.56 C84.25,78.97 85.12,77.83 85.44,76.99 C85.67,76.38 87.46,76.16 88.02,76.6 Z" id="Path" fill="#FEF8E4" fill-rule="nonzero"></path>
                        <path d="M79.46,95.56 C80.1,96.06 80.39,98.41 79.72,98.62 C78.77,98.92 77.42,99 76.64,98.52 C75.69,97.93 76.56,96.79 76.88,95.95 C77.11,95.34 78.91,95.13 79.46,95.56 Z" id="Path" fill="#FEF8E4" fill-rule="nonzero"></path>
                        <path d="M75.71,55.24 C76.35,55.74 76.64,58.09 75.97,58.3 C75.02,58.6 73.67,58.68 72.89,58.2 C71.94,57.61 72.81,56.47 73.13,55.63 C73.36,55.02 75.15,54.81 75.71,55.24 Z" id="Path" fill="#FEF8E4" fill-rule="nonzero"></path>
                        <path d="M86.13,65.21 C86.77,65.71 87.06,68.06 86.39,68.27 C85.44,68.57 84.09,68.65 83.31,68.17 C82.36,67.58 83.23,66.44 83.55,65.6 C83.78,64.99 85.58,64.78 86.13,65.21 Z" id="Path" fill="#FEF8E4" fill-rule="nonzero"></path>
                        <path d="M70.24,50.37 C70.33,50.85 70.72,51.63 70.55,52.26 C70.21,53.5 68.9,54.09 67.88,53.71 C67.18,53.46 66.82,52.37 67.19,51.66 C67.84,50.42 69.01,49.78 70.24,50.37 Z" id="Path" fill="#FEF8E4" fill-rule="nonzero"></path>
                        <path d="M81.63,48.48 C81.72,48.96 82.11,49.74 81.94,50.37 C81.6,51.61 80.29,52.2 79.27,51.82 C78.57,51.57 78.21,50.48 78.58,49.77 C79.22,48.53 80.4,47.89 81.63,48.48 Z" id="Path" fill="#FEF8E4" fill-rule="nonzero"></path>
                        <path d="M62.42,47.28 C62.51,47.76 62.9,48.54 62.73,49.17 C62.39,50.41 61.08,51 60.06,50.62 C59.36,50.37 59,49.28 59.37,48.57 C60.02,47.33 61.19,46.69 62.42,47.28 Z" id="Path" fill="#FEF8E4" fill-rule="nonzero"></path>
                        <path d="M52.7,50.35 C52.79,50.83 53.18,51.61 53.01,52.24 C52.67,53.48 51.36,54.07 50.34,53.69 C49.64,53.44 49.28,52.35 49.65,51.64 C50.29,50.4 51.46,49.76 52.7,50.35 Z" id="Path" fill="#FEF8E4" fill-rule="nonzero"></path>
                        <path d="M84.26,85.28 C85.34,85.99 85.96,87.78 85.44,88.69 C84.65,90.08 83.1,90.38 81.7,89.42 C80.59,88.65 80.15,87.09 80.75,86.05 C81.24,85.22 83.43,84.74 84.26,85.28 Z" id="Path" fill="#FEF8E4" fill-rule="nonzero"></path>
                        <path d="M88.8,50.9 C89.88,51.61 90.5,53.4 89.98,54.31 C89.19,55.7 87.64,56 86.24,55.04 C85.13,54.27 84.69,52.71 85.29,51.67 C85.78,50.84 87.97,50.36 88.8,50.9 Z" id="Path" fill="#FEF8E4" fill-rule="nonzero"></path>
                        <path d="M71.69,88.83 C72.77,89.54 73.39,91.33 72.87,92.24 C72.08,93.63 70.53,93.93 69.13,92.97 C68.02,92.2 67.58,90.64 68.18,89.6 C68.67,88.77 70.86,88.29 71.69,88.83 Z" id="Path" fill="#FEF8E4" fill-rule="nonzero"></path>
                        <path d="M46.04,79.17 C46.68,79.67 46.97,82.02 46.3,82.23 C45.35,82.53 44,82.61 43.22,82.13 C42.27,81.54 43.14,80.4 43.46,79.56 C43.69,78.95 45.49,78.73 46.04,79.17 Z" id="Path" fill="#FEF8E4" fill-rule="nonzero"></path>
                        <path d="M97.73,75.05 C97.82,75.53 98.21,76.31 98.04,76.94 C97.7,78.18 96.39,78.77 95.37,78.39 C94.67,78.14 94.31,77.05 94.68,76.34 C95.33,75.1 96.5,74.47 97.73,75.05 Z" id="Path" fill="#FEF8E4" fill-rule="nonzero"></path>
                        <path d="M50.88,93.74 C50.75,93.65 50.57,93.58 50.5,93.45 C50.36,93.18 50.2,92.88 50.18,92.58 C50.05,90.75 50.69,89.4 51.69,89.46 C51.96,89.48 52.33,89.7 52.44,89.93 C53.13,91.28 52.95,92.16 51.74,93.4 C51.55,93.61 51.18,93.64 50.88,93.74 Z" id="Path" fill="#FEF8E4" fill-rule="nonzero"></path>
                        <path d="M65.83,86.88 C65.7,86.79 65.52,86.72 65.45,86.59 C65.31,86.32 65.15,86.02 65.13,85.72 C65,83.89 65.64,82.54 66.64,82.6 C66.91,82.62 67.28,82.84 67.39,83.07 C68.08,84.42 67.9,85.3 66.69,86.54 C66.49,86.75 66.12,86.77 65.83,86.88 Z" id="Path" fill="#FEF8E4" fill-rule="nonzero"></path>
                        <path d="M91.21,72.44 C91.08,72.35 90.9,72.28 90.83,72.15 C90.69,71.88 90.53,71.58 90.51,71.28 C90.38,69.45 91.02,68.1 92.02,68.16 C92.29,68.18 92.66,68.4 92.77,68.63 C93.46,69.98 93.28,70.86 92.07,72.1 C91.88,72.3 91.51,72.33 91.21,72.44 Z" id="Path" fill="#FEF8E4" fill-rule="nonzero"></path>
                        <path d="M74.84,88.31 C74.71,88.22 74.53,88.15 74.46,88.02 C74.32,87.75 74.16,87.45 74.14,87.15 C74.01,85.32 74.65,83.97 75.65,84.03 C75.92,84.05 76.29,84.27 76.4,84.5 C77.09,85.85 76.91,86.73 75.7,87.97 C75.5,88.18 75.13,88.2 74.84,88.31 Z" id="Path" fill="#FEF8E4" fill-rule="nonzero"></path>
                        <path d="M45.92,72.64 C45.79,72.55 45.61,72.48 45.54,72.35 C45.4,72.08 45.24,71.78 45.22,71.48 C45.09,69.65 45.73,68.3 46.73,68.36 C47,68.38 47.37,68.6 47.48,68.83 C48.17,70.18 47.99,71.06 46.78,72.3 C46.59,72.5 46.22,72.53 45.92,72.64 Z" id="Path" fill="#FEF8E4" fill-rule="nonzero"></path>
                        <path d="M27.25,52.55 C27.52,52.66 27.69,52.96 27.64,53.43 C27.63,53.48 27.62,53.53 27.59,53.57 C27.56,53.6 27.52,53.62 27.48,53.63 C27.08,53.76 25.54,53.6 26.25,52.86 C26.56,52.53 26.96,52.43 27.25,52.55 Z" id="Path" fill="#FEF8E4" fill-rule="nonzero"></path>
                        <path d="M31.06,40.22 C31.33,40.33 31.5,40.63 31.45,41.1 C31.44,41.15 31.43,41.2 31.4,41.24 C31.37,41.27 31.33,41.29 31.29,41.3 C30.89,41.43 29.35,41.27 30.06,40.53 C30.36,40.21 30.76,40.1 31.06,40.22 Z" id="Path" fill="#FEF8E4" fill-rule="nonzero"></path>
                        <path d="M105.04,51.68 C105.1,51.43 105.55,51.24 105.77,51.29 C106.24,51.4 106.5,52.15 106.05,52.43 C105.63,52.7 105.17,52.18 105.05,51.8 C105.03,51.76 105.03,51.72 105.04,51.68 Z" id="Path" fill="#FEF8E4" fill-rule="nonzero"></path>
                        <path d="M109.79,45.04 C109.85,44.79 110.3,44.6 110.52,44.65 C110.99,44.76 111.25,45.51 110.8,45.79 C110.38,46.06 109.91,45.54 109.8,45.16 C109.78,45.13 109.78,45.08 109.79,45.04 Z" id="Path" fill="#FEF8E4" fill-rule="nonzero"></path>
                        <path d="M94.39,31.51 C94.45,31.26 94.9,31.07 95.12,31.12 C95.59,31.23 95.85,31.98 95.4,32.26 C94.98,32.53 94.52,32.01 94.4,31.63 C94.38,31.6 94.38,31.55 94.39,31.51 Z" id="Path" fill="#FEF8E4" fill-rule="nonzero"></path>
                    </g>
                    <g transform="translate(5.000000, 14.000000)">
                        <rect id="Rectangle" transform="translate(71.522462, 77.381907) rotate(-2.235190) translate(-71.522462, -77.381907) " x="3.10014294" y="2.77483028" width="136.844638" height="149.214153"></rect>
                        <path d="M82.21,29.38 C83.07,29.19 84.29,29.54 83.95,30.61 C83.77,31.15 82.9,31.85 82.41,31.8 C81.35,31.68 80.78,30.09 81.81,29.53 C81.93,29.46 82.06,29.41 82.21,29.38 Z" id="Path" fill="#FEF8E4" fill-rule="nonzero"></path>
                        <path d="M67.94,119.45 C67.95,118.85 68.74,117.9 69.22,118.05 C69.54,118.15 69.8,118.46 69.98,118.73 C70.01,118.78 70.04,118.83 70.04,118.89 C70.04,118.96 70,119.02 69.96,119.07 C69.63,119.52 69.27,119.95 68.88,120.36 C68.85,120.39 68.82,120.42 68.79,120.41 C68.76,120.41 68.73,120.39 68.71,120.37 C68.5,120.18 68.29,119.99 68.08,119.8 C67.98,119.71 67.94,119.59 67.94,119.45 Z" id="Path" fill="#FEF8E4" fill-rule="nonzero"></path>
                        <path d="M19.87,111.77 C19.88,111.17 20.67,110.22 21.15,110.37 C21.47,110.47 21.73,110.78 21.91,111.05 C21.94,111.1 21.97,111.15 21.97,111.21 C21.97,111.28 21.93,111.34 21.89,111.39 C21.56,111.84 21.2,112.27 20.81,112.68 C20.78,112.71 20.75,112.74 20.72,112.73 C20.69,112.73 20.66,112.71 20.64,112.69 C20.43,112.5 20.22,112.31 20.01,112.12 C19.9,112.03 19.86,111.91 19.87,111.77 Z" id="Path" fill="#FEF8E4" fill-rule="nonzero"></path>
                        <path d="M115.12,109.65 C115.23,108.88 116.79,107.89 117.28,108.88 C117.58,109.5 117.07,110.44 116.45,110.66 C115.83,110.88 115.44,110.34 115.16,109.88 C115.12,109.81 115.11,109.73 115.12,109.65 Z" id="Path" fill="#FEF8E4" fill-rule="nonzero"></path>
                        <path d="M138.6,99.18 C138.71,98.41 140.27,97.42 140.76,98.41 C141.06,99.03 140.55,99.97 139.93,100.19 C139.31,100.41 138.92,99.87 138.64,99.41 C138.6,99.34 138.59,99.26 138.6,99.18 Z" id="Path" fill="#FEF8E4" fill-rule="nonzero"></path>
                        <path d="M20.41,49.04 C20.49,48.56 20.86,47.6 21.53,47.86 C21.82,47.97 22,48.26 22.15,48.53 C22.44,49.1 22.75,50.03 22.19,50.54 C21.95,50.76 21.58,50.82 21.27,50.72 C20.52,50.5 20.3,49.73 20.41,49.04 Z" id="Path" fill="#FEF8E4" fill-rule="nonzero"></path>
                        <path d="M99.42,134.21 C100.1,133.6 101.4,132.43 101.51,133.69 C101.54,134.07 101.32,134.43 101.1,134.74 C100.62,135.46 99.82,134.68 99.42,134.21 Z" id="Path" fill="#FEF8E4" fill-rule="nonzero"></path>
                        <path d="M36.72,57.82 C37.4,57.21 38.7,56.04 38.81,57.3 C38.84,57.68 38.62,58.04 38.4,58.35 C37.92,59.07 37.12,58.29 36.72,57.82 Z" id="Path" fill="#FEF8E4" fill-rule="nonzero"></path>
                        <path d="M75.36,150.7 C75.36,150.7 75.96,150.98 76.01,151.04 C76.24,151.28 76.17,151.53 76.08,151.81 C76.07,151.85 76.05,151.88 76.02,151.9 C75.99,151.91 75.95,151.9 75.92,151.89 C75.35,151.71 74.99,151.29 75.36,150.7 Z" id="Path" fill="#FEF8E4" fill-rule="nonzero"></path>
                        <path d="M43.35,3.85 C43.35,3.85 43.95,4.13 44,4.19 C44.23,4.43 44.16,4.68 44.07,4.96 C44.06,5 44.04,5.03 44.01,5.05 C43.98,5.06 43.94,5.05 43.91,5.04 C43.34,4.86 42.98,4.43 43.35,3.85 Z" id="Path" fill="#FEF8E4" fill-rule="nonzero"></path>
                        <path d="M2.47,57.99 C2.47,57.99 3.07,58.27 3.12,58.33 C3.35,58.57 3.28,58.82 3.19,59.1 C3.18,59.14 3.16,59.17 3.13,59.19 C3.1,59.2 3.06,59.19 3.03,59.18 C2.45,59.01 2.1,58.58 2.47,57.99 Z" id="Path" fill="#FEF8E4" fill-rule="nonzero"></path>
                        <path d="M22.24,136.05 C22.24,136.05 22.84,136.33 22.89,136.39 C23.12,136.63 23.05,136.88 22.96,137.16 C22.95,137.2 22.93,137.23 22.9,137.25 C22.87,137.26 22.83,137.25 22.8,137.24 C22.22,137.06 21.87,136.64 22.24,136.05 Z" id="Path" fill="#FEF8E4" fill-rule="nonzero"></path>
                        <path d="M129.78,14.81 C129.78,14.81 130.38,15.09 130.43,15.15 C130.66,15.39 130.59,15.64 130.5,15.92 C130.49,15.96 130.47,15.99 130.44,16.01 C130.41,16.02 130.37,16.01 130.34,16 C129.76,15.82 129.41,15.39 129.78,14.81 Z" id="Path" fill="#FEF8E4" fill-rule="nonzero"></path>
                        <path d="M41.04,128.15 C41.04,128.15 41.64,128.43 41.69,128.49 C41.92,128.73 41.85,128.98 41.76,129.26 C41.75,129.3 41.73,129.33 41.7,129.35 C41.67,129.36 41.63,129.35 41.6,129.34 C41.02,129.16 40.67,128.74 41.04,128.15 Z" id="Path" fill="#FEF8E4" fill-rule="nonzero"></path>
                        <path d="M113.12,77.56 C113.12,77.56 113.72,77.84 113.77,77.9 C114,78.14 113.93,78.39 113.84,78.67 C113.83,78.71 113.81,78.74 113.78,78.76 C113.75,78.77 113.71,78.76 113.68,78.75 C113.1,78.58 112.75,78.15 113.12,77.56 Z" id="Path" fill="#FEF8E4" fill-rule="nonzero"></path>
                        <path d="M117.05,55.91 C117.05,55.91 117.65,56.19 117.7,56.25 C117.93,56.49 117.86,56.74 117.77,57.02 C117.76,57.06 117.74,57.09 117.71,57.11 C117.68,57.12 117.64,57.11 117.61,57.1 C117.03,56.92 116.68,56.5 117.05,55.91 Z" id="Path" fill="#FEF8E4" fill-rule="nonzero"></path>
                        <path d="M39.27,82.83 C39.27,82.83 39.87,83.11 39.92,83.17 C40.15,83.41 40.08,83.66 39.99,83.94 C39.98,83.98 39.96,84.01 39.93,84.03 C39.9,84.04 39.86,84.03 39.83,84.02 C39.26,83.85 38.9,83.42 39.27,82.83 Z" id="Path" fill="#FEF8E4" fill-rule="nonzero"></path>
                        <path d="M88.8,66.57 C88.8,66.57 89.4,66.85 89.45,66.91 C89.68,67.15 89.61,67.4 89.52,67.68 C89.51,67.72 89.49,67.75 89.46,67.77 C89.43,67.78 89.39,67.77 89.36,67.76 C88.79,67.58 88.43,67.16 88.8,66.57 Z" id="Path" fill="#FEF8E4" fill-rule="nonzero"></path>
                        <path d="M102.21,104.27 C102.21,104.27 102.81,104.55 102.86,104.61 C103.09,104.85 103.02,105.1 102.93,105.38 C102.92,105.42 102.9,105.45 102.87,105.47 C102.84,105.48 102.8,105.47 102.77,105.46 C102.2,105.28 101.84,104.85 102.21,104.27 Z" id="Path" fill="#FEF8E4" fill-rule="nonzero"></path>
                        <path d="M73.5,103 C73.5,103 74.1,103.28 74.15,103.34 C74.38,103.58 74.31,103.83 74.22,104.11 C74.21,104.15 74.19,104.18 74.16,104.2 C74.13,104.21 74.09,104.2 74.06,104.19 C73.49,104.01 73.13,103.58 73.5,103 Z" id="Path" fill="#FEF8E4" fill-rule="nonzero"></path>
                        <path d="M84.06,128.86 C84.06,128.86 84.66,129.14 84.71,129.2 C84.94,129.44 84.87,129.69 84.78,129.97 C84.77,130.01 84.75,130.04 84.72,130.06 C84.69,130.07 84.65,130.06 84.62,130.05 C84.05,129.87 83.69,129.45 84.06,128.86 Z" id="Path" fill="#FEF8E4" fill-rule="nonzero"></path>
                        <path d="M136,68.21 C136.03,68.21 136.07,68.21 136.1,68.22 C137.56,68.39 137.2,69.52 136.38,70.15 C136.32,70.2 136.25,70.24 136.17,70.24 C136.1,70.23 136.05,70.19 135.99,70.14 C135.54,69.73 134.73,68.14 136,68.21 Z" id="Path" fill="#FEF8E4" fill-rule="nonzero"></path>
                        <path d="M83.9,79.8 C83.93,79.8 83.97,79.8 84,79.81 C85.46,79.98 85.1,81.11 84.28,81.74 C84.22,81.79 84.15,81.83 84.07,81.83 C84,81.82 83.95,81.78 83.89,81.73 C83.44,81.31 82.63,79.73 83.9,79.8 Z" id="Path" fill="#FEF8E4" fill-rule="nonzero"></path>
                        <path d="M91.71,96.22 C91.74,96.22 91.78,96.22 91.81,96.23 C93.27,96.4 92.91,97.53 92.09,98.16 C92.03,98.21 91.96,98.25 91.88,98.25 C91.81,98.24 91.76,98.2 91.7,98.15 C91.25,97.73 90.44,96.14 91.71,96.22 Z" id="Path" fill="#FEF8E4" fill-rule="nonzero"></path>
                        <path d="M103.36,88.6 C103.39,88.6 103.43,88.6 103.46,88.61 C104.92,88.78 104.56,89.91 103.74,90.54 C103.68,90.59 103.61,90.63 103.53,90.63 C103.46,90.62 103.41,90.58 103.35,90.53 C102.9,90.11 102.08,88.52 103.36,88.6 Z" id="Path" fill="#FEF8E4" fill-rule="nonzero"></path>
                        <path d="M102.52,67.13 C102.55,67.13 102.59,67.13 102.62,67.14 C104.08,67.31 103.72,68.44 102.9,69.07 C102.84,69.12 102.77,69.16 102.69,69.16 C102.62,69.15 102.57,69.11 102.51,69.06 C102.06,68.64 101.25,67.06 102.52,67.13 Z" id="Path" fill="#FEF8E4" fill-rule="nonzero"></path>
                        <path d="M77.21,92 C77.24,92 77.28,92 77.31,92.01 C78.77,92.18 78.41,93.31 77.59,93.94 C77.53,93.99 77.46,94.03 77.38,94.03 C77.31,94.02 77.26,93.98 77.2,93.93 C76.75,93.52 75.94,91.93 77.21,92 Z" id="Path" fill="#FEF8E4" fill-rule="nonzero"></path>
                        <path d="M17.16,77.2 C17.22,77.21 17.27,77.25 17.32,77.31 C17.54,77.59 17.64,77.91 17.77,78.24 C17.79,78.29 17.81,78.33 17.8,78.38 C17.79,78.45 17.73,78.51 17.68,78.55 C17.56,78.66 17.43,78.76 17.27,78.82 C16.8,78.98 15.83,77.89 16.16,77.67 C16.43,77.5 16.82,77.12 17.16,77.2 Z" id="Path" fill="#FEF8E4" fill-rule="nonzero"></path>
                        <path d="M57.99,82.77 C58.05,82.78 58.1,82.82 58.15,82.88 C58.37,83.16 58.47,83.48 58.6,83.81 C58.62,83.86 58.64,83.9 58.63,83.95 C58.62,84.02 58.56,84.08 58.51,84.12 C58.39,84.23 58.26,84.33 58.1,84.39 C57.63,84.55 56.66,83.46 56.99,83.24 C57.25,83.07 57.65,82.7 57.99,82.77 Z" id="Path" fill="#FEF8E4" fill-rule="nonzero"></path>
                        <path d="M75.81,70.55 C75.86,70.11 76.12,69.58 76.31,69.37 C77.13,68.44 77.44,70.27 76.95,70.84 C76.81,71 76.64,71.17 76.43,71.2 C75.89,71.29 75.76,70.96 75.81,70.55 Z" id="Path" fill="#FEF8E4" fill-rule="nonzero"></path>
                        <path d="M71.51,82.66 C71.56,82.22 71.82,81.69 72.01,81.48 C72.83,80.55 73.14,82.38 72.65,82.95 C72.51,83.11 72.34,83.28 72.13,83.31 C71.59,83.4 71.46,83.07 71.51,82.66 Z" id="Path" fill="#FEF8E4" fill-rule="nonzero"></path>
                        <path d="M51.16,112.12 C51.21,111.68 51.47,111.15 51.66,110.94 C52.48,110.01 52.79,111.84 52.3,112.41 C52.16,112.57 51.99,112.74 51.78,112.77 C51.24,112.86 51.11,112.53 51.16,112.12 Z" id="Path" fill="#FEF8E4" fill-rule="nonzero"></path>
                        <path d="M50.51,95.43 C50.56,94.99 50.82,94.46 51.01,94.25 C51.83,93.32 52.14,95.15 51.65,95.72 C51.51,95.88 51.34,96.05 51.13,96.08 C50.59,96.16 50.46,95.83 50.51,95.43 Z" id="Path" fill="#FEF8E4" fill-rule="nonzero"></path>
                        <path d="M62.52,97.35 C62.57,96.91 62.83,96.38 63.02,96.17 C63.84,95.24 64.15,97.07 63.66,97.64 C63.52,97.8 63.35,97.97 63.14,98 C62.61,98.08 62.48,97.75 62.52,97.35 Z" id="Path" fill="#FEF8E4" fill-rule="nonzero"></path>
                        <path d="M135.7,45.1 C135.72,44.88 135.87,44.76 136.14,44.52 C136.31,44.37 136.76,45.59 136.61,45.84 C136.31,46.36 135.91,46 135.75,45.49 C135.72,45.33 135.7,45.2 135.7,45.1 Z" id="Path" fill="#FEF8E4" fill-rule="nonzero"></path>
                        <path d="M116.25,36.3 C116.27,36.08 116.42,35.96 116.69,35.72 C116.86,35.57 117.31,36.79 117.16,37.04 C116.86,37.56 116.46,37.2 116.3,36.69 C116.26,36.53 116.24,36.41 116.25,36.3 Z" id="Path" fill="#FEF8E4" fill-rule="nonzero"></path>
                        <path d="M53.37,48.49 C53.7,48.4 54.07,48.55 54.36,49.03 C54.39,49.08 54.42,49.13 54.41,49.19 C54.41,49.24 54.38,49.29 54.35,49.33 C54.08,49.74 52.53,50.7 52.66,49.5 C52.72,48.97 53.02,48.59 53.37,48.49 Z" id="Path" fill="#FEF8E4" fill-rule="nonzero"></path>
                        <path d="M70.35,54.99 C70.68,54.9 71.05,55.05 71.34,55.53 C71.37,55.58 71.4,55.63 71.39,55.69 C71.39,55.74 71.36,55.79 71.33,55.83 C71.06,56.24 69.51,57.2 69.64,56 C69.69,55.47 69.99,55.09 70.35,54.99 Z" id="Path" fill="#FEF8E4" fill-rule="nonzero"></path>
                        <path d="M58.52,57.84 C58.85,57.75 59.22,57.9 59.51,58.38 C59.54,58.43 59.57,58.48 59.56,58.54 C59.56,58.59 59.53,58.64 59.5,58.68 C59.23,59.09 57.68,60.05 57.81,58.85 C57.86,58.32 58.16,57.94 58.52,57.84 Z" id="Path" fill="#FEF8E4" fill-rule="nonzero"></path>
                        <path d="M95.13,77.91 C95.46,77.82 95.83,77.97 96.12,78.45 C96.15,78.5 96.18,78.55 96.17,78.61 C96.17,78.66 96.14,78.71 96.11,78.75 C95.84,79.16 94.29,80.12 94.42,78.92 C94.48,78.39 94.77,78.01 95.13,77.91 Z" id="Path" fill="#FEF8E4" fill-rule="nonzero"></path>
                        <path d="M40.7,29.87 C41.03,29.78 41.4,29.93 41.69,30.41 C41.72,30.46 41.75,30.51 41.74,30.57 C41.74,30.62 41.71,30.67 41.68,30.71 C41.41,31.12 39.86,32.08 39.99,30.88 C40.05,30.35 40.35,29.97 40.7,29.87 Z" id="Path" fill="#FEF8E4" fill-rule="nonzero"></path>
                        <path d="M47.05,70.23 C47.38,70.14 47.75,70.29 48.04,70.77 C48.07,70.82 48.1,70.87 48.09,70.93 C48.09,70.98 48.06,71.03 48.03,71.07 C47.76,71.48 46.21,72.44 46.34,71.24 C46.4,70.71 46.7,70.33 47.05,70.23 Z" id="Path" fill="#FEF8E4" fill-rule="nonzero"></path>
                        <path d="M63.84,71.97 C64.17,71.88 64.54,72.03 64.83,72.51 C64.86,72.56 64.89,72.61 64.88,72.67 C64.88,72.72 64.85,72.77 64.82,72.81 C64.55,73.22 63,74.18 63.13,72.98 C63.19,72.45 63.49,72.07 63.84,71.97 Z" id="Path" fill="#FEF8E4" fill-rule="nonzero"></path>
                        <path d="M61.8,19.49 C62.13,19.4 62.5,19.55 62.79,20.03 C62.82,20.08 62.85,20.13 62.84,20.19 C62.84,20.24 62.81,20.29 62.78,20.33 C62.51,20.74 60.96,21.7 61.09,20.5 C61.14,19.97 61.44,19.59 61.8,19.49 Z" id="Path" fill="#FEF8E4" fill-rule="nonzero"></path>
                        <path d="M69.79,40.68 C70.12,40.59 70.49,40.74 70.78,41.22 C70.81,41.27 70.84,41.32 70.83,41.38 C70.83,41.43 70.8,41.48 70.77,41.52 C70.5,41.93 68.95,42.89 69.08,41.69 C69.14,41.16 69.43,40.78 69.79,40.68 Z" id="Path" fill="#FEF8E4" fill-rule="nonzero"></path>
                        <path d="M84.23,104.62 C84.56,104.53 84.93,104.68 85.22,105.16 C85.25,105.21 85.28,105.26 85.27,105.32 C85.27,105.37 85.24,105.42 85.21,105.46 C84.94,105.87 83.39,106.83 83.52,105.63 C83.57,105.1 83.87,104.71 84.23,104.62 Z" id="Path" fill="#FEF8E4" fill-rule="nonzero"></path>
                        <path d="M99.43,19.12 C99.31,18.84 99.59,18.35 99.82,18.24 C100.33,18 101.11,18.5 100.9,19.1 C100.7,19.65 99.9,19.51 99.52,19.24 C99.48,19.21 99.45,19.17 99.43,19.12 Z" id="Path" fill="#FEF8E4" fill-rule="nonzero"></path>
                        <path d="M98.35,52.61 C98.23,52.33 98.51,51.84 98.74,51.73 C99.25,51.49 100.03,51.99 99.82,52.59 C99.62,53.14 98.82,53 98.44,52.73 C98.4,52.69 98.37,52.65 98.35,52.61 Z" id="Path" fill="#FEF8E4" fill-rule="nonzero"></path>
                        <path d="M81.75,55.64 C81.63,55.36 81.91,54.87 82.14,54.76 C82.65,54.52 83.43,55.02 83.22,55.62 C83.02,56.17 82.22,56.03 81.84,55.76 C81.8,55.73 81.77,55.69 81.75,55.64 Z" id="Path" fill="#FEF8E4" fill-rule="nonzero"></path>
                        <path d="M123.78,92.22 C123.66,91.94 123.94,91.45 124.17,91.34 C124.68,91.1 125.46,91.6 125.25,92.2 C125.05,92.75 124.25,92.61 123.87,92.34 C123.84,92.31 123.8,92.27 123.78,92.22 Z" id="Path" fill="#FEF8E4" fill-rule="nonzero"></path>
                    </g>
                    <g transform="translate(13.000000, 15.000000)">
                        <rect id="Rectangle" transform="translate(78.311314, 83.593919) rotate(-82.622691) translate(-78.311314, -83.593919) " x="3.70297646" y="15.1704432" width="149.216676" height="136.846952"></rect>
                        <path d="M96.86,37.99 C97.74,37.95 98.88,38.5 98.37,39.49 C98.11,39.99 97.13,40.54 96.65,40.4 C95.63,40.11 95.33,38.44 96.44,38.06 C96.57,38.02 96.71,37.99 96.86,37.99 Z" id="Path" fill="#FEF8E4" fill-rule="nonzero"></path>
                        <path d="M67.75,124.41 C67.86,123.82 68.8,123.01 69.24,123.24 C69.54,123.39 69.75,123.74 69.88,124.03 C69.9,124.08 69.93,124.14 69.92,124.2 C69.91,124.27 69.86,124.32 69.81,124.37 C69.41,124.76 68.98,125.13 68.53,125.46 C68.5,125.48 68.47,125.5 68.43,125.5 C68.4,125.49 68.38,125.47 68.36,125.44 C68.18,125.22 68.01,124.99 67.83,124.78 C67.74,124.67 67.73,124.55 67.75,124.41 Z" id="Path" fill="#FEF8E4" fill-rule="nonzero"></path>
                        <path d="M21.63,108.81 C21.74,108.22 22.68,107.41 23.12,107.64 C23.42,107.79 23.63,108.14 23.76,108.43 C23.78,108.48 23.81,108.54 23.8,108.6 C23.79,108.67 23.74,108.72 23.69,108.77 C23.29,109.16 22.86,109.53 22.41,109.86 C22.38,109.88 22.35,109.9 22.31,109.9 C22.28,109.89 22.26,109.87 22.24,109.84 C22.06,109.62 21.89,109.39 21.71,109.18 C21.63,109.07 21.61,108.95 21.63,108.81 Z" id="Path" fill="#FEF8E4" fill-rule="nonzero"></path>
                        <path d="M115.91,122.63 C116.15,121.89 117.85,121.17 118.16,122.23 C118.35,122.89 117.7,123.73 117.05,123.85 C116.41,123.96 116.11,123.37 115.91,122.87 C115.88,122.79 115.88,122.71 115.91,122.63 Z" id="Path" fill="#FEF8E4" fill-rule="nonzero"></path>
                        <path d="M140.81,116.22 C141.05,115.48 142.75,114.76 143.06,115.82 C143.25,116.48 142.6,117.32 141.95,117.44 C141.31,117.55 141.01,116.96 140.81,116.46 C140.78,116.38 140.78,116.3 140.81,116.22 Z" id="Path" fill="#FEF8E4" fill-rule="nonzero"></path>
                        <path d="M32.64,47.05 C32.8,46.58 33.33,45.7 33.94,46.07 C34.21,46.23 34.34,46.54 34.43,46.84 C34.62,47.45 34.78,48.42 34.13,48.83 C33.85,49.01 33.48,49 33.19,48.85 C32.51,48.51 32.42,47.72 32.64,47.05 Z" id="Path" fill="#FEF8E4" fill-rule="nonzero"></path>
                        <path d="M96.33,144.22 C97.1,143.73 98.58,142.8 98.48,144.06 C98.45,144.44 98.17,144.75 97.9,145.03 C97.3,145.65 96.64,144.74 96.33,144.22 Z" id="Path" fill="#FEF8E4" fill-rule="nonzero"></path>
                        <path d="M47.26,58.44 C48.03,57.95 49.51,57.02 49.41,58.28 C49.38,58.66 49.1,58.97 48.83,59.25 C48.24,59.87 47.57,58.97 47.26,58.44 Z" id="Path" fill="#FEF8E4" fill-rule="nonzero"></path>
                        <path d="M69.85,156.46 C69.85,156.46 70.4,156.84 70.44,156.9 C70.62,157.17 70.51,157.41 70.38,157.67 C70.36,157.7 70.34,157.74 70.31,157.75 C70.28,157.76 70.24,157.74 70.21,157.73 C69.67,157.46 69.39,156.98 69.85,156.46 Z" id="Path" fill="#FEF8E4" fill-rule="nonzero"></path>
                        <path d="M62.81,6.32 C62.81,6.32 63.36,6.7 63.4,6.76 C63.58,7.03 63.47,7.27 63.34,7.53 C63.32,7.56 63.3,7.6 63.27,7.61 C63.24,7.62 63.2,7.6 63.17,7.59 C62.63,7.32 62.35,6.84 62.81,6.32 Z" id="Path" fill="#FEF8E4" fill-rule="nonzero"></path>
                        <path d="M13.46,52.89 C13.46,52.89 14.01,53.27 14.05,53.33 C14.23,53.6 14.12,53.84 13.99,54.1 C13.97,54.13 13.95,54.17 13.92,54.18 C13.89,54.19 13.85,54.17 13.82,54.16 C13.28,53.88 13,53.4 13.46,52.89 Z" id="Path" fill="#FEF8E4" fill-rule="nonzero"></path>
                        <path d="M19.92,133.15 C19.92,133.15 20.47,133.53 20.51,133.59 C20.69,133.86 20.58,134.1 20.45,134.36 C20.43,134.39 20.41,134.43 20.38,134.44 C20.35,134.45 20.31,134.43 20.28,134.42 C19.73,134.14 19.45,133.67 19.92,133.15 Z" id="Path" fill="#FEF8E4" fill-rule="nonzero"></path>
                        <path d="M146.19,31.56 C146.19,31.56 146.74,31.94 146.78,32 C146.96,32.27 146.85,32.51 146.72,32.77 C146.7,32.8 146.68,32.84 146.65,32.85 C146.62,32.86 146.58,32.84 146.55,32.83 C146.01,32.55 145.73,32.08 146.19,31.56 Z" id="Path" fill="#FEF8E4" fill-rule="nonzero"></path>
                        <path d="M39.77,128.5 C39.77,128.5 40.32,128.88 40.36,128.94 C40.54,129.21 40.43,129.45 40.3,129.71 C40.28,129.74 40.26,129.78 40.23,129.79 C40.2,129.8 40.16,129.78 40.13,129.77 C39.59,129.49 39.31,129.02 39.77,128.5 Z" id="Path" fill="#FEF8E4" fill-rule="nonzero"></path>
                        <path d="M119.29,90.66 C119.29,90.66 119.84,91.04 119.88,91.1 C120.06,91.37 119.95,91.61 119.82,91.87 C119.8,91.9 119.78,91.94 119.75,91.95 C119.72,91.96 119.68,91.94 119.65,91.93 C119.1,91.65 118.82,91.17 119.29,90.66 Z" id="Path" fill="#FEF8E4" fill-rule="nonzero"></path>
                        <path d="M126.78,69.96 C126.78,69.96 127.33,70.34 127.37,70.4 C127.55,70.67 127.44,70.91 127.31,71.17 C127.29,71.2 127.27,71.24 127.24,71.25 C127.21,71.26 127.17,71.24 127.14,71.23 C126.6,70.96 126.31,70.48 126.78,69.96 Z" id="Path" fill="#FEF8E4" fill-rule="nonzero"></path>
                        <path d="M45.6,83.52 C45.6,83.52 46.15,83.9 46.19,83.96 C46.37,84.23 46.26,84.47 46.13,84.73 C46.11,84.76 46.09,84.8 46.06,84.81 C46.03,84.82 45.99,84.8 45.96,84.79 C45.41,84.52 45.13,84.04 45.6,83.52 Z" id="Path" fill="#FEF8E4" fill-rule="nonzero"></path>
                        <path d="M97.15,75.76 C97.15,75.76 97.7,76.14 97.74,76.2 C97.92,76.47 97.81,76.71 97.68,76.97 C97.66,77 97.64,77.04 97.61,77.05 C97.58,77.06 97.54,77.04 97.51,77.03 C96.96,76.75 96.68,76.27 97.15,75.76 Z" id="Path" fill="#FEF8E4" fill-rule="nonzero"></path>
                        <path d="M104.08,115.16 C104.08,115.16 104.63,115.54 104.67,115.6 C104.85,115.87 104.74,116.11 104.61,116.37 C104.59,116.4 104.57,116.44 104.54,116.45 C104.51,116.46 104.47,116.44 104.44,116.43 C103.9,116.16 103.62,115.68 104.08,115.16 Z" id="Path" fill="#FEF8E4" fill-rule="nonzero"></path>
                        <path d="M75.98,109.12 C75.98,109.12 76.53,109.5 76.57,109.56 C76.75,109.83 76.64,110.07 76.51,110.33 C76.49,110.36 76.47,110.4 76.44,110.41 C76.41,110.42 76.37,110.4 76.34,110.39 C75.8,110.11 75.52,109.63 75.98,109.12 Z" id="Path" fill="#FEF8E4" fill-rule="nonzero"></path>
                        <path d="M82.08,136.38 C82.08,136.38 82.63,136.76 82.67,136.82 C82.85,137.09 82.74,137.33 82.61,137.59 C82.59,137.62 82.57,137.66 82.54,137.67 C82.51,137.68 82.47,137.66 82.44,137.65 C81.89,137.38 81.61,136.9 82.08,136.38 Z" id="Path" fill="#FEF8E4" fill-rule="nonzero"></path>
                        <path d="M143.41,85.25 C143.44,85.26 143.47,85.27 143.51,85.28 C144.92,85.69 144.38,86.74 143.47,87.23 C143.4,87.27 143.32,87.3 143.25,87.28 C143.18,87.26 143.14,87.21 143.09,87.15 C142.71,86.67 142.17,84.97 143.41,85.25 Z" id="Path" fill="#FEF8E4" fill-rule="nonzero"></path>
                        <path d="M90.11,87.98 C90.14,87.99 90.17,88 90.21,88.01 C91.62,88.42 91.08,89.47 90.17,89.96 C90.1,90 90.02,90.03 89.95,90.01 C89.88,89.99 89.84,89.94 89.79,89.88 C89.4,89.4 88.87,87.7 90.11,87.98 Z" id="Path" fill="#FEF8E4" fill-rule="nonzero"></path>
                        <path d="M95.07,105.47 C95.1,105.48 95.13,105.49 95.17,105.5 C96.58,105.91 96.04,106.96 95.13,107.45 C95.06,107.49 94.98,107.52 94.91,107.5 C94.84,107.48 94.8,107.43 94.75,107.37 C94.36,106.89 93.82,105.19 95.07,105.47 Z" id="Path" fill="#FEF8E4" fill-rule="nonzero"></path>
                        <path d="M107.82,99.9 C107.85,99.91 107.88,99.92 107.92,99.93 C109.33,100.34 108.79,101.39 107.88,101.88 C107.81,101.92 107.73,101.95 107.66,101.93 C107.59,101.91 107.55,101.86 107.5,101.8 C107.12,101.32 106.58,99.62 107.82,99.9 Z" id="Path" fill="#FEF8E4" fill-rule="nonzero"></path>
                        <path d="M110.58,78.6 C110.61,78.61 110.64,78.62 110.68,78.63 C112.09,79.04 111.55,80.09 110.64,80.58 C110.57,80.62 110.49,80.65 110.42,80.63 C110.35,80.61 110.31,80.56 110.26,80.5 C109.87,80.01 109.34,78.31 110.58,78.6 Z" id="Path" fill="#FEF8E4" fill-rule="nonzero"></path>
                        <path d="M81.48,98.9 C81.51,98.91 81.54,98.92 81.58,98.93 C82.99,99.34 82.45,100.39 81.54,100.88 C81.47,100.92 81.39,100.95 81.32,100.93 C81.25,100.91 81.21,100.86 81.16,100.8 C80.77,100.31 80.23,98.61 81.48,98.9 Z" id="Path" fill="#FEF8E4" fill-rule="nonzero"></path>
                        <path d="M24.74,74.28 C24.8,74.3 24.84,74.35 24.88,74.41 C25.05,74.72 25.09,75.06 25.17,75.4 C25.18,75.45 25.19,75.5 25.18,75.55 C25.16,75.62 25.09,75.66 25.03,75.7 C24.89,75.78 24.75,75.87 24.58,75.9 C24.09,75.98 23.32,74.74 23.68,74.58 C23.97,74.45 24.42,74.14 24.74,74.28 Z" id="Path" fill="#FEF8E4" fill-rule="nonzero"></path>
                        <path d="M64.06,86.59 C64.12,86.61 64.16,86.66 64.2,86.72 C64.37,87.03 64.41,87.37 64.49,87.71 C64.5,87.76 64.51,87.81 64.5,87.86 C64.48,87.93 64.41,87.97 64.35,88.01 C64.21,88.09 64.07,88.18 63.9,88.21 C63.41,88.29 62.64,87.05 63,86.89 C63.29,86.76 63.74,86.45 64.06,86.59 Z" id="Path" fill="#FEF8E4" fill-rule="nonzero"></path>
                        <path d="M83.68,77.51 C83.8,77.09 84.15,76.6 84.37,76.43 C85.34,75.65 85.33,77.5 84.75,77.99 C84.58,78.13 84.39,78.26 84.18,78.26 C83.63,78.25 83.56,77.91 83.68,77.51 Z" id="Path" fill="#FEF8E4" fill-rule="nonzero"></path>
                        <path d="M77.41,88.74 C77.53,88.32 77.88,87.83 78.1,87.66 C79.07,86.88 79.06,88.73 78.48,89.22 C78.31,89.36 78.12,89.49 77.91,89.49 C77.37,89.47 77.29,89.13 77.41,88.74 Z" id="Path" fill="#FEF8E4" fill-rule="nonzero"></path>
                        <path d="M52.43,114.39 C52.55,113.97 52.9,113.48 53.12,113.31 C54.09,112.53 54.08,114.38 53.5,114.87 C53.33,115.01 53.14,115.14 52.93,115.14 C52.39,115.12 52.31,114.78 52.43,114.39 Z" id="Path" fill="#FEF8E4" fill-rule="nonzero"></path>
                        <path d="M54.57,97.81 C54.69,97.39 55.04,96.9 55.26,96.73 C56.23,95.95 56.22,97.8 55.64,98.29 C55.47,98.43 55.28,98.56 55.07,98.56 C54.53,98.55 54.46,98.21 54.57,97.81 Z" id="Path" fill="#FEF8E4" fill-rule="nonzero"></path>
                        <path d="M66.1,101.71 C66.22,101.29 66.57,100.8 66.79,100.63 C67.76,99.85 67.75,101.7 67.17,102.19 C67,102.33 66.81,102.46 66.6,102.46 C66.06,102.45 65.99,102.11 66.1,101.71 Z" id="Path" fill="#FEF8E4" fill-rule="nonzero"></path>
                        <path d="M146.98,62.42 C147.04,62.21 147.2,62.11 147.51,61.92 C147.71,61.8 147.94,63.08 147.76,63.3 C147.38,63.76 147.04,63.34 146.97,62.82 C146.95,62.64 146.95,62.52 146.98,62.42 Z" id="Path" fill="#FEF8E4" fill-rule="nonzero"></path>
                        <path d="M129.27,50.5 C129.33,50.29 129.49,50.19 129.8,50 C130,49.88 130.23,51.16 130.05,51.38 C129.67,51.84 129.33,51.42 129.26,50.9 C129.24,50.72 129.24,50.6 129.27,50.5 Z" id="Path" fill="#FEF8E4" fill-rule="nonzero"></path>
                        <path d="M65.23,52.01 C65.57,51.98 65.91,52.18 66.12,52.71 C66.14,52.76 66.16,52.82 66.15,52.88 C66.14,52.93 66.1,52.97 66.07,53.01 C65.73,53.37 64.05,54.05 64.37,52.9 C64.51,52.38 64.87,52.05 65.23,52.01 Z" id="Path" fill="#FEF8E4" fill-rule="nonzero"></path>
                        <path d="M80.89,61.26 C81.23,61.23 81.57,61.43 81.78,61.96 C81.8,62.01 81.82,62.07 81.81,62.13 C81.8,62.18 81.76,62.22 81.73,62.26 C81.39,62.62 79.71,63.3 80.03,62.15 C80.16,61.62 80.52,61.3 80.89,61.26 Z" id="Path" fill="#FEF8E4" fill-rule="nonzero"></path>
                        <path d="M68.74,62.1 C69.08,62.07 69.42,62.27 69.63,62.8 C69.65,62.85 69.67,62.91 69.66,62.97 C69.65,63.02 69.61,63.06 69.58,63.1 C69.24,63.46 67.56,64.14 67.88,62.99 C68.02,62.46 68.38,62.13 68.74,62.1 Z" id="Path" fill="#FEF8E4" fill-rule="nonzero"></path>
                        <path d="M101.49,88 C101.83,87.97 102.17,88.17 102.38,88.7 C102.4,88.75 102.42,88.81 102.41,88.87 C102.4,88.92 102.36,88.96 102.33,89 C101.99,89.36 100.31,90.04 100.63,88.89 C100.77,88.36 101.13,88.03 101.49,88 Z" id="Path" fill="#FEF8E4" fill-rule="nonzero"></path>
                        <path d="M55.85,31.54 C56.19,31.51 56.53,31.71 56.74,32.24 C56.76,32.29 56.78,32.35 56.77,32.41 C56.76,32.46 56.72,32.5 56.69,32.54 C56.35,32.9 54.67,33.58 54.99,32.43 C55.13,31.91 55.48,31.58 55.85,31.54 Z" id="Path" fill="#FEF8E4" fill-rule="nonzero"></path>
                        <path d="M55.38,72.4 C55.72,72.37 56.06,72.57 56.27,73.1 C56.29,73.15 56.31,73.21 56.3,73.27 C56.29,73.32 56.25,73.36 56.22,73.4 C55.88,73.76 54.2,74.44 54.52,73.29 C54.65,72.76 55.01,72.44 55.38,72.4 Z" id="Path" fill="#FEF8E4" fill-rule="nonzero"></path>
                        <path d="M71.64,76.91 C71.98,76.88 72.32,77.08 72.53,77.61 C72.55,77.66 72.57,77.72 72.56,77.78 C72.55,77.83 72.51,77.87 72.48,77.91 C72.14,78.27 70.46,78.95 70.78,77.8 C70.92,77.28 71.27,76.95 71.64,76.91 Z" id="Path" fill="#FEF8E4" fill-rule="nonzero"></path>
                        <path d="M78.38,24.83 C78.72,24.8 79.06,25 79.27,25.53 C79.29,25.58 79.31,25.64 79.3,25.7 C79.29,25.75 79.25,25.79 79.22,25.83 C78.88,26.19 77.2,26.87 77.52,25.72 C77.66,25.2 78.01,24.87 78.38,24.83 Z" id="Path" fill="#FEF8E4" fill-rule="nonzero"></path>
                        <path d="M82.72,47.06 C83.06,47.03 83.4,47.23 83.61,47.76 C83.63,47.81 83.65,47.87 83.64,47.93 C83.63,47.98 83.59,48.02 83.56,48.06 C83.22,48.42 81.54,49.1 81.86,47.95 C82,47.42 82.36,47.09 82.72,47.06 Z" id="Path" fill="#FEF8E4" fill-rule="nonzero"></path>
                        <path d="M86.29,112.5 C86.63,112.47 86.97,112.67 87.18,113.2 C87.2,113.25 87.22,113.31 87.21,113.37 C87.2,113.42 87.16,113.46 87.13,113.5 C86.79,113.86 85.11,114.54 85.43,113.39 C85.56,112.87 85.92,112.54 86.29,112.5 Z" id="Path" fill="#FEF8E4" fill-rule="nonzero"></path>
                        <path d="M115.55,30.75 C115.48,30.46 115.84,30.02 116.08,29.95 C116.62,29.8 117.31,30.43 117,30.98 C116.72,31.49 115.95,31.21 115.62,30.89 C115.59,30.84 115.56,30.8 115.55,30.75 Z" id="Path" fill="#FEF8E4" fill-rule="nonzero"></path>
                        <path d="M108.89,63.58 C108.82,63.29 109.18,62.85 109.42,62.78 C109.96,62.63 110.65,63.26 110.34,63.81 C110.06,64.32 109.29,64.04 108.96,63.72 C108.93,63.68 108.91,63.63 108.89,63.58 Z" id="Path" fill="#FEF8E4" fill-rule="nonzero"></path>
                        <path d="M92.02,63.8 C91.95,63.51 92.31,63.07 92.55,63 C93.09,62.85 93.78,63.48 93.47,64.03 C93.19,64.54 92.42,64.26 92.09,63.94 C92.05,63.9 92.03,63.85 92.02,63.8 Z" id="Path" fill="#FEF8E4" fill-rule="nonzero"></path>
                        <path d="M127.36,106.89 C127.29,106.6 127.65,106.16 127.89,106.09 C128.43,105.94 129.12,106.57 128.81,107.12 C128.53,107.63 127.76,107.35 127.43,107.03 C127.39,106.98 127.37,106.94 127.36,106.89 Z" id="Path" fill="#FEF8E4" fill-rule="nonzero"></path>
                    </g>
                </g>
                <g id="Group-2" transform="translate(0.000000, 46.210000)">
                    <path d="M358.59,325.01 C355.01,357.15 353.1,389.44 352.43,421.85 C359.37,421.97 366.13,425.26 372.76,430.86 L397.21,430.38 C397.23,405.48 398.6,380.36 401.39,355.01 C403,334.18 403.67,386.47 404.62,413.84 L407.04,411.74 L407.04,310.89 C390.06,318.93 373.81,324.03 358.59,325.01 Z" id="XMLID_3_" fill="url(#linearGradient-1)" fill-rule="nonzero" opacity="0.25"></path>
                    <polyline id="Path" points="359.43 410.32 403.31 401.92 417.32 453.26"></polyline>
                    <polygon id="Path" fill="#004A6A" fill-rule="nonzero" points="517.21 23.34 478.47 38.36 478.47 252.54 517.21 252.54"></polygon>
                    <path d="M461.2,42.01 L422.46,55.8 C422.46,55.8 421.53,253 422.46,252.540804 C423.39,252.07 461.2,252.540804 461.2,252.540804 L461.2,42.01 Z" id="Path" fill="#004A6A" fill-rule="nonzero"></path>
                    <polygon id="Path" fill="#004A6A" fill-rule="nonzero" points="479.4 482.66 479.4 282.42 517.21 282.42 517.21 495.74"></polygon>
                    <polygon id="Path" fill="#004A6A" fill-rule="nonzero" points="422.45 466.01 422.45 282.42 460.26 282.42 460.26 478"></polygon>
                    <path d="M405.89,123.8 C372.28,115.78 360.69,148.23 362.24,163.68 C363.5,180.19 358.67,189.1 349.11,194.59 C346.58,204.39 359.6,209.18 380.79,214.68 L405.89,123.8 Z" id="Path" fill="#D62929" fill-rule="nonzero"></path>
                    <path d="M387.29,174.89 L379.97,197.46 C387.08,202.31 397.66,202.97 408.91,199.45 L408.91,174.35 C400.2,179.8 393.17,179.36 387.29,174.89 Z" id="Path" fill="#F2A19C" fill-rule="nonzero"></path>
                    <path d="M387.29,174.89 L379.97,197.46 C387.08,202.31 397.66,202.97 408.91,199.45 L408.91,174.35 C400.2,179.8 393.17,179.36 387.29,174.89 Z" id="Path" fill="url(#linearGradient-2)" fill-rule="nonzero" opacity="0.24"></path>
                    <path d="M418.25,151.32 C418.25,164.33 408.56,180.29 396.62,180.29 C384.67,180.29 374.99,164.33 374.99,151.32 C374.99,138.31 384.68,127.75 396.62,127.75 C408.57,127.75 418.25,138.3 418.25,151.32 Z" id="Path" fill="#FFBEB6" fill-rule="nonzero"></path>
                    <ellipse id="Oval" stroke="#004A6A" stroke-width="2" cx="386.57" cy="150.35" rx="8.5" ry="7.15"></ellipse>
                    <ellipse id="Oval" stroke="#004A6A" stroke-width="2" cx="408.98" cy="150.35" rx="8.5" ry="7.15"></ellipse>
                    <path d="M405.89,130.02 C386.19,132 394.69,149.77 375.92,158.65 L364.49,152.87 C372.48,129.17 386.32,119.58 405.89,123.79 L405.89,130.02 Z" id="Path" fill="#D62929" fill-rule="nonzero"></path>
                    <path d="M406.28,130.02 C386.58,132 396.07,154.41 377.31,163.29" id="Path" stroke="#D62929"></path>
                    <path d="M382.31,189.14 C389.21,193.05 397.69,194.08 409.38,189.14 L409.38,316.46 C389.82,323.43 351.03,332.2 344.49,326.11 C336.27,305.82 356.52,297.86 353.83,258.09 C351,216.22 339.83,198.19 382.31,189.14 Z" id="Path" fill="#428DFC" fill-rule="nonzero"></path>
                    <polygon id="Path" fill="#004A6A" fill-rule="nonzero" points="527.02 0 407.51 42.01 407.51 479.87 527.02 515.35"></polygon>
                    <path d="M422.45,253.84 C422.68,244.83 429.35,236.77 439.57,229.23 C445.79,224.56 452.45,227.67 452.8,235.45 C452.8,240.9 446.13,258.02 438.81,262.09 C433.48,257.54 428.05,254.6 422.45,253.84 Z" id="Path" fill="#FBE1CD" fill-rule="nonzero"></path>
                    <line x1="287.55" y1="430.86" x2="263.27" y2="394.45" id="Path" stroke="#4886C6" stroke-width="3" stroke-linecap="round" stroke-linejoin="round"></line>
                    <circle id="Oval" fill="#FBE1CD" fill-rule="nonzero" cx="342.63" cy="444.86" r="49.48"></circle>
                    <circle id="Oval" fill="#E43B36" fill-rule="nonzero" cx="342.63" cy="444.86" r="25.21"></circle>
                    <rect id="Rectangle" stroke="#071F35" stroke-width="1.99993013" fill="#071F35" fill-rule="nonzero" stroke-linecap="round" stroke-linejoin="round" transform="translate(414.477605, 444.854953) rotate(10.474992) translate(-414.477605, -444.854953) " x="376.668926" y="393.976731" width="75.6173582" height="101.756445"></rect>
                    <rect id="Rectangle" stroke="#071F35" stroke-width="1.99993013" fill="#071F35" fill-rule="nonzero" stroke-linecap="round" stroke-linejoin="round" transform="translate(427.548148, 435.515757) rotate(10.474992) translate(-427.548148, -435.515757) " x="389.739469" y="384.637535" width="75.6173582" height="101.756445"></rect>
                    <line x1="465.4" y1="432.26" x2="491.07" y2="393.51" id="Path" stroke="#4886C6" stroke-width="3" stroke-linecap="round" stroke-linejoin="round"></line>
                    <path d="M460.73,401.45 L392.58,389.31 L408.06,380.48 L471.94,392.11 C471.93,397.72 465.92,402.67 460.73,401.45 Z" id="Path" stroke="#071F35" stroke-width="2" fill="#F2F1E6" fill-rule="nonzero" stroke-linecap="round" stroke-linejoin="round"></path>
                    <path d="M384.17,225 C383.47,237.63 386.95,248.91 395.37,258.61 C398.17,261.41 410.33,252.98 417.78,245.54 C420.99,243.05 436.45,248.34 442.05,253.94 C447.57,259.97 442.29,263.25 434.58,267.94 C395.64,293.63 378.24,294.22 371.1,282.88 L353.36,253.94 C330.95,216.6 344.29,199.36 373.68,191.82 L384.17,225 Z" id="Path" fill="#428DFC" fill-rule="nonzero"></path>
                    <rect id="Rectangle" fill="url(#linearGradient-3)" fill-rule="nonzero" opacity="0.51" x="92.43" y="570.78" width="660.99" height="28.68"></rect>
                    <rect id="Rectangle" fill="url(#linearGradient-4)" fill-rule="nonzero" opacity="0.51" x="119.97" y="543.71" width="633.45" height="27.43"></rect>
                    <rect id="Rectangle" fill="url(#linearGradient-5)" fill-rule="nonzero" opacity="0.51" x="155.91" y="516.64" width="597.5" height="27.43"></rect>
                    <rect id="Rectangle" fill="#4886C6" fill-rule="nonzero" x="288.01" y="459.33" width="179.25" height="84.02"></rect>
                    <polygon id="Path" fill="#A1C3FC" fill-rule="nonzero" points="287.55 430.86 276.34 468.2 478 468.2 466.8 430.86"></polygon>
                </g>
                <g id="Group" transform="translate(293.890000, 194.640000)">
                    <g id="XMLID_1_-link" transform="translate(48.000000, 43.000000)" fill="url(#linearGradient-7)" fill-rule="nonzero">
                        <path d="M42.28,33.57 C41.58,46.2 45.06,57.48 53.48,67.18 C56.28,69.98 68.44,61.55 75.89,54.11 C79.1,51.62 94.56,56.91 100.16,62.51 C105.68,68.54 100.4,71.82 92.69,76.51 C53.75,102.2 36.35,102.79 29.21,91.45 L11.47,62.51 C-10.94,25.17 2.4,7.93 31.79,0.39 L42.28,33.57 Z" id="XMLID_1_"></path>
                    </g>
                    <g>
                        <rect id="Rectangle" transform="translate(83.526926, 88.422312) rotate(-77.525880) translate(-83.526926, -88.422312) " x="8.91644253" y="19.9968686" width="149.220967" height="136.850887"></rect>
                        <path d="M106.04,44.67 C106.92,44.71 108.01,45.36 107.41,46.3 C107.1,46.78 106.08,47.23 105.62,47.06 C104.63,46.68 104.48,44.99 105.62,44.71 C105.75,44.67 105.89,44.66 106.04,44.67 Z" id="Path" fill="#FBE1CD" fill-rule="nonzero"></path>
                        <path d="M69.37,128.16 C69.53,127.58 70.54,126.86 70.96,127.13 C71.24,127.31 71.42,127.67 71.52,127.98 C71.54,128.03 71.56,128.09 71.54,128.15 C71.52,128.22 71.47,128.26 71.42,128.31 C70.98,128.66 70.52,128.99 70.04,129.28 C70.01,129.3 69.97,129.32 69.94,129.31 C69.91,129.3 69.89,129.27 69.87,129.25 C69.71,129.01 69.56,128.77 69.4,128.54 C69.34,128.42 69.33,128.3 69.37,128.16 Z" id="Path" fill="#FBE1CD" fill-rule="nonzero"></path>
                        <path d="M24.82,108.53 C24.98,107.95 25.99,107.23 26.41,107.5 C26.69,107.68 26.87,108.04 26.97,108.35 C26.99,108.4 27.01,108.46 26.99,108.52 C26.97,108.59 26.92,108.63 26.87,108.68 C26.43,109.03 25.97,109.36 25.49,109.65 C25.46,109.67 25.42,109.69 25.39,109.68 C25.36,109.67 25.34,109.64 25.32,109.62 C25.16,109.38 25.01,109.14 24.85,108.91 C24.79,108.79 24.78,108.66 24.82,108.53 Z" id="Path" fill="#FBE1CD" fill-rule="nonzero"></path>
                        <path d="M117.5,130.67 C117.81,129.96 119.56,129.39 119.78,130.47 C119.92,131.15 119.19,131.93 118.53,131.98 C117.88,132.03 117.63,131.42 117.48,130.9 C117.45,130.82 117.46,130.74 117.5,130.67 Z" id="Path" fill="#FBE1CD" fill-rule="nonzero"></path>
                        <path d="M142.86,126.5 C143.17,125.79 144.92,125.22 145.14,126.3 C145.28,126.98 144.55,127.76 143.89,127.81 C143.24,127.86 142.99,127.25 142.84,126.73 C142.82,126.65 142.83,126.58 142.86,126.5 Z" id="Path" fill="#FBE1CD" fill-rule="nonzero"></path>
                        <path d="M41.27,47.99 C41.47,47.54 42.07,46.71 42.65,47.13 C42.9,47.31 43.01,47.63 43.07,47.94 C43.21,48.57 43.27,49.54 42.6,49.89 C42.31,50.04 41.94,50 41.66,49.83 C41.01,49.43 40.99,48.64 41.27,47.99 Z" id="Path" fill="#FBE1CD" fill-rule="nonzero"></path>
                        <path d="M96.08,150.43 C96.89,150.01 98.45,149.21 98.24,150.46 C98.17,150.84 97.87,151.12 97.58,151.38 C96.92,151.94 96.34,150.98 96.08,150.43 Z" id="Path" fill="#FBE1CD" fill-rule="nonzero"></path>
                        <path d="M54.82,60.63 C55.63,60.21 57.19,59.41 56.98,60.66 C56.91,61.04 56.61,61.32 56.32,61.58 C55.67,62.15 55.08,61.18 54.82,60.63 Z" id="Path" fill="#FBE1CD" fill-rule="nonzero"></path>
                        <path d="M68.62,160.28 C68.62,160.28 69.13,160.7 69.17,160.77 C69.33,161.06 69.2,161.28 69.04,161.53 C69.02,161.56 69,161.6 68.96,161.6 C68.93,161.61 68.89,161.59 68.87,161.57 C68.34,161.25 68.11,160.75 68.62,160.28 Z" id="Path" fill="#FBE1CD" fill-rule="nonzero"></path>
                        <path d="M74.94,10.11 C74.94,10.11 75.45,10.53 75.49,10.6 C75.65,10.89 75.52,11.11 75.36,11.36 C75.34,11.39 75.32,11.43 75.28,11.43 C75.25,11.44 75.21,11.42 75.19,11.4 C74.67,11.08 74.43,10.58 74.94,10.11 Z" id="Path" fill="#FBE1CD" fill-rule="nonzero"></path>
                        <path d="M21.65,52.1 C21.65,52.1 22.16,52.52 22.2,52.59 C22.36,52.88 22.23,53.1 22.07,53.35 C22.05,53.38 22.03,53.42 21.99,53.42 C21.96,53.43 21.92,53.41 21.9,53.39 C21.38,53.07 21.14,52.57 21.65,52.1 Z" id="Path" fill="#FBE1CD" fill-rule="nonzero"></path>
                        <path d="M20.95,132.62 C20.95,132.62 21.46,133.04 21.5,133.11 C21.66,133.4 21.53,133.62 21.37,133.87 C21.35,133.9 21.33,133.94 21.29,133.94 C21.26,133.95 21.22,133.93 21.2,133.91 C20.68,133.59 20.44,133.09 20.95,132.62 Z" id="Path" fill="#FBE1CD" fill-rule="nonzero"></path>
                        <path d="M155.75,42.65 C155.75,42.65 156.26,43.07 156.3,43.14 C156.46,43.43 156.33,43.65 156.17,43.9 C156.15,43.93 156.13,43.97 156.09,43.97 C156.06,43.98 156.02,43.96 156,43.94 C155.48,43.62 155.24,43.12 155.75,42.65 Z" id="Path" fill="#FBE1CD" fill-rule="nonzero"></path>
                        <path d="M41.14,129.75 C41.14,129.75 41.65,130.17 41.69,130.24 C41.85,130.53 41.72,130.75 41.56,131 C41.54,131.03 41.52,131.07 41.48,131.07 C41.45,131.08 41.41,131.06 41.39,131.04 C40.87,130.73 40.63,130.22 41.14,129.75 Z" id="Path" fill="#FBE1CD" fill-rule="nonzero"></path>
                        <path d="M123.7,99.12 C123.7,99.12 124.21,99.54 124.25,99.61 C124.41,99.9 124.28,100.12 124.12,100.37 C124.1,100.4 124.08,100.44 124.04,100.44 C124.01,100.45 123.97,100.43 123.95,100.41 C123.43,100.1 123.19,99.59 123.7,99.12 Z" id="Path" fill="#FBE1CD" fill-rule="nonzero"></path>
                        <path d="M133,79.18 C133,79.18 133.51,79.6 133.55,79.67 C133.71,79.96 133.58,80.18 133.42,80.43 C133.4,80.46 133.38,80.5 133.34,80.5 C133.31,80.51 133.27,80.49 133.25,80.47 C132.73,80.15 132.5,79.65 133,79.18 Z" id="Path" fill="#FBE1CD" fill-rule="nonzero"></path>
                        <path d="M50.94,85.47 C50.94,85.47 51.45,85.89 51.49,85.96 C51.65,86.25 51.52,86.47 51.36,86.72 C51.34,86.75 51.32,86.79 51.28,86.79 C51.25,86.8 51.21,86.78 51.19,86.76 C50.67,86.44 50.43,85.94 50.94,85.47 Z" id="Path" fill="#FBE1CD" fill-rule="nonzero"></path>
                        <path d="M102.97,82.31 C102.97,82.31 103.48,82.73 103.52,82.8 C103.68,83.09 103.55,83.31 103.39,83.56 C103.37,83.59 103.35,83.63 103.31,83.63 C103.28,83.64 103.24,83.62 103.22,83.6 C102.7,83.29 102.47,82.79 102.97,82.31 Z" id="Path" fill="#FBE1CD" fill-rule="nonzero"></path>
                        <path d="M106.38,122.18 C106.38,122.18 106.89,122.6 106.93,122.67 C107.09,122.96 106.96,123.18 106.8,123.43 C106.78,123.46 106.76,123.5 106.72,123.5 C106.69,123.51 106.65,123.49 106.63,123.47 C106.11,123.16 105.87,122.65 106.38,122.18 Z" id="Path" fill="#FBE1CD" fill-rule="nonzero"></path>
                        <path d="M78.93,113.66 C78.93,113.66 79.44,114.08 79.48,114.15 C79.64,114.44 79.51,114.66 79.35,114.91 C79.33,114.94 79.31,114.98 79.27,114.98 C79.24,114.99 79.2,114.97 79.18,114.95 C78.66,114.64 78.42,114.14 78.93,113.66 Z" id="Path" fill="#FBE1CD" fill-rule="nonzero"></path>
                        <path d="M82.58,141.36 C82.58,141.36 83.09,141.78 83.13,141.85 C83.29,142.14 83.16,142.36 83,142.61 C82.98,142.64 82.96,142.68 82.92,142.68 C82.89,142.69 82.85,142.67 82.83,142.65 C82.31,142.34 82.07,141.84 82.58,141.36 Z" id="Path" fill="#FBE1CD" fill-rule="nonzero"></path>
                        <path d="M148.21,95.89 C148.24,95.9 148.27,95.91 148.31,95.92 C149.68,96.45 149.05,97.45 148.09,97.85 C148.02,97.88 147.94,97.91 147.87,97.88 C147.81,97.86 147.76,97.8 147.73,97.74 C147.39,97.23 147,95.49 148.21,95.89 Z" id="Path" fill="#FBE1CD" fill-rule="nonzero"></path>
                        <path d="M94.88,93.87 C94.91,93.88 94.94,93.89 94.97,93.9 C96.34,94.43 95.71,95.43 94.75,95.83 C94.68,95.86 94.6,95.89 94.53,95.86 C94.47,95.84 94.42,95.78 94.39,95.72 C94.05,95.21 93.66,93.47 94.88,93.87 Z" id="Path" fill="#FBE1CD" fill-rule="nonzero"></path>
                        <path d="M98.26,111.73 C98.29,111.74 98.32,111.75 98.35,111.76 C99.72,112.29 99.09,113.29 98.13,113.69 C98.06,113.72 97.98,113.75 97.91,113.72 C97.85,113.7 97.8,113.64 97.77,113.58 C97.43,113.07 97.05,111.33 98.26,111.73 Z" id="Path" fill="#FBE1CD" fill-rule="nonzero"></path>
                        <path d="M111.46,107.31 C111.49,107.32 111.52,107.33 111.55,107.34 C112.92,107.87 112.29,108.87 111.33,109.27 C111.26,109.3 111.18,109.33 111.11,109.3 C111.05,109.28 111,109.22 110.97,109.16 C110.63,108.66 110.25,106.92 111.46,107.31 Z" id="Path" fill="#FBE1CD" fill-rule="nonzero"></path>
                        <path d="M116.1,86.34 C116.13,86.35 116.16,86.36 116.2,86.37 C117.57,86.9 116.94,87.9 115.98,88.3 C115.91,88.33 115.83,88.36 115.76,88.33 C115.7,88.31 115.65,88.25 115.62,88.19 C115.27,87.68 114.89,85.94 116.1,86.34 Z" id="Path" fill="#FBE1CD" fill-rule="nonzero"></path>
                        <path d="M85.31,103.97 C85.34,103.98 85.37,103.99 85.4,104 C86.77,104.53 86.14,105.53 85.18,105.93 C85.11,105.96 85.03,105.99 84.96,105.96 C84.9,105.94 84.85,105.88 84.82,105.82 C84.48,105.32 84.1,103.58 85.31,103.97 Z" id="Path" fill="#FBE1CD" fill-rule="nonzero"></path>
                        <path d="M30.98,74.41 C31.04,74.44 31.08,74.48 31.1,74.55 C31.24,74.88 31.25,75.21 31.3,75.56 C31.31,75.61 31.31,75.66 31.29,75.71 C31.26,75.78 31.19,75.82 31.13,75.85 C30.98,75.92 30.83,75.99 30.67,76.01 C30.17,76.05 29.52,74.74 29.89,74.62 C30.2,74.51 30.67,74.25 30.98,74.41 Z" id="Path" fill="#FBE1CD" fill-rule="nonzero"></path>
                        <path d="M69.06,90.16 C69.12,90.19 69.16,90.23 69.18,90.3 C69.32,90.63 69.33,90.96 69.38,91.31 C69.39,91.36 69.39,91.41 69.37,91.46 C69.34,91.53 69.27,91.57 69.21,91.6 C69.06,91.67 68.91,91.74 68.75,91.76 C68.25,91.8 67.6,90.49 67.97,90.37 C68.27,90.26 68.75,90 69.06,90.16 Z" id="Path" fill="#FBE1CD" fill-rule="nonzero"></path>
                        <path d="M89.4,82.87 C89.56,82.46 89.95,82.01 90.18,81.85 C91.21,81.16 91.04,83 90.42,83.43 C90.24,83.55 90.04,83.67 89.83,83.65 C89.29,83.6 89.25,83.25 89.4,82.87 Z" id="Path" fill="#FBE1CD" fill-rule="nonzero"></path>
                        <path d="M82.16,93.49 C82.32,93.08 82.71,92.63 82.94,92.47 C83.97,91.78 83.8,93.62 83.18,94.05 C83,94.17 82.8,94.29 82.59,94.27 C82.05,94.22 82.01,93.87 82.16,93.49 Z" id="Path" fill="#FBE1CD" fill-rule="nonzero"></path>
                        <path d="M55,116.82 C55.16,116.41 55.55,115.96 55.78,115.8 C56.81,115.11 56.64,116.95 56.02,117.38 C55.84,117.5 55.64,117.62 55.43,117.6 C54.89,117.55 54.85,117.2 55,116.82 Z" id="Path" fill="#FBE1CD" fill-rule="nonzero"></path>
                        <path d="M58.61,100.5 C58.77,100.09 59.16,99.64 59.39,99.48 C60.42,98.79 60.25,100.63 59.63,101.06 C59.45,101.18 59.25,101.3 59.04,101.28 C58.5,101.23 58.46,100.88 58.61,100.5 Z" id="Path" fill="#FBE1CD" fill-rule="nonzero"></path>
                        <path d="M69.74,105.41 C69.9,105 70.29,104.55 70.52,104.39 C71.55,103.7 71.38,105.54 70.76,105.97 C70.58,106.09 70.38,106.21 70.17,106.19 C69.64,106.14 69.6,105.79 69.74,105.41 Z" id="Path" fill="#FBE1CD" fill-rule="nonzero"></path>
                        <path d="M153.79,73.46 C153.86,73.26 154.04,73.17 154.37,73.01 C154.58,72.91 154.69,74.2 154.49,74.4 C154.07,74.82 153.77,74.37 153.75,73.85 C153.75,73.68 153.76,73.55 153.79,73.46 Z" id="Path" fill="#FBE1CD" fill-rule="nonzero"></path>
                        <path d="M137.21,60.01 C137.28,59.81 137.46,59.72 137.79,59.56 C138,59.46 138.11,60.75 137.91,60.95 C137.49,61.37 137.19,60.92 137.17,60.4 C137.16,60.23 137.17,60.11 137.21,60.01 Z" id="Path" fill="#FBE1CD" fill-rule="nonzero"></path>
                        <path d="M73.3,55.83 C73.64,55.83 73.96,56.06 74.12,56.6 C74.14,56.65 74.15,56.71 74.13,56.77 C74.11,56.82 74.08,56.86 74.04,56.89 C73.67,57.22 71.93,57.75 72.36,56.63 C72.54,56.13 72.93,55.83 73.3,55.83 Z" id="Path" fill="#FBE1CD" fill-rule="nonzero"></path>
                        <path d="M88.07,66.43 C88.41,66.43 88.73,66.66 88.89,67.2 C88.91,67.25 88.92,67.31 88.9,67.37 C88.88,67.42 88.85,67.46 88.81,67.49 C88.44,67.82 86.7,68.35 87.13,67.23 C87.31,66.73 87.7,66.44 88.07,66.43 Z" id="Path" fill="#FBE1CD" fill-rule="nonzero"></path>
                        <path d="M75.9,66.18 C76.24,66.18 76.56,66.41 76.72,66.95 C76.74,67 76.75,67.06 76.73,67.12 C76.71,67.17 76.68,67.21 76.64,67.24 C76.27,67.57 74.53,68.1 74.96,66.98 C75.14,66.48 75.53,66.19 75.9,66.18 Z" id="Path" fill="#FBE1CD" fill-rule="nonzero"></path>
                        <path d="M106.22,94.89 C106.56,94.89 106.88,95.12 107.04,95.66 C107.06,95.71 107.07,95.77 107.05,95.83 C107.03,95.88 107,95.92 106.96,95.95 C106.59,96.28 104.85,96.81 105.28,95.69 C105.46,95.19 105.85,94.9 106.22,94.89 Z" id="Path" fill="#FBE1CD" fill-rule="nonzero"></path>
                        <path d="M65.77,34.61 C66.11,34.61 66.43,34.84 66.59,35.38 C66.61,35.43 66.62,35.49 66.6,35.55 C66.58,35.6 66.55,35.64 66.51,35.67 C66.14,36 64.4,36.53 64.83,35.41 C65.02,34.91 65.4,34.61 65.77,34.61 Z" id="Path" fill="#FBE1CD" fill-rule="nonzero"></path>
                        <path d="M61.67,75.26 C62.01,75.26 62.33,75.49 62.49,76.03 C62.51,76.08 62.52,76.14 62.5,76.2 C62.48,76.25 62.45,76.29 62.41,76.32 C62.04,76.65 60.3,77.18 60.73,76.06 C60.91,75.56 61.3,75.26 61.67,75.26 Z" id="Path" fill="#FBE1CD" fill-rule="nonzero"></path>
                        <path d="M77.46,81.2 C77.8,81.2 78.12,81.43 78.28,81.97 C78.3,82.02 78.31,82.08 78.29,82.14 C78.27,82.19 78.24,82.23 78.2,82.26 C77.83,82.59 76.09,83.12 76.52,82 C76.71,81.5 77.09,81.2 77.46,81.2 Z" id="Path" fill="#FBE1CD" fill-rule="nonzero"></path>
                        <path d="M88.81,29.92 C89.15,29.92 89.47,30.15 89.63,30.69 C89.65,30.74 89.66,30.8 89.64,30.86 C89.62,30.91 89.59,30.95 89.55,30.98 C89.18,31.31 87.44,31.84 87.87,30.72 C88.05,30.22 88.44,29.93 88.81,29.92 Z" id="Path" fill="#FBE1CD" fill-rule="nonzero"></path>
                        <path d="M91.16,52.45 C91.5,52.45 91.82,52.68 91.98,53.22 C92,53.27 92.01,53.33 91.99,53.39 C91.97,53.44 91.94,53.48 91.9,53.51 C91.53,53.84 89.79,54.37 90.22,53.25 C90.41,52.75 90.79,52.45 91.16,52.45 Z" id="Path" fill="#FBE1CD" fill-rule="nonzero"></path>
                        <path d="M88.89,117.95 C89.23,117.95 89.55,118.18 89.71,118.72 C89.73,118.77 89.74,118.83 89.72,118.89 C89.7,118.94 89.67,118.98 89.63,119.01 C89.26,119.34 87.52,119.87 87.95,118.75 C88.14,118.25 88.52,117.96 88.89,117.95 Z" id="Path" fill="#FBE1CD" fill-rule="nonzero"></path>
                        <path d="M125.3,39.12 C125.25,38.82 125.65,38.42 125.9,38.37 C126.45,38.27 127.08,38.95 126.73,39.47 C126.4,39.95 125.66,39.61 125.36,39.26 C125.33,39.22 125.31,39.17 125.3,39.12 Z" id="Path" fill="#FBE1CD" fill-rule="nonzero"></path>
                        <path d="M115.76,71.23 C115.71,70.93 116.11,70.53 116.36,70.48 C116.91,70.38 117.54,71.06 117.19,71.58 C116.86,72.06 116.12,71.72 115.82,71.37 C115.78,71.33 115.76,71.28 115.76,71.23 Z" id="Path" fill="#FBE1CD" fill-rule="nonzero"></path>
                        <path d="M98.93,69.95 C98.88,69.65 99.28,69.25 99.53,69.2 C100.08,69.1 100.71,69.78 100.36,70.3 C100.03,70.78 99.29,70.44 98.99,70.09 C98.95,70.05 98.93,70 98.93,69.95 Z" id="Path" fill="#FBE1CD" fill-rule="nonzero"></path>
                        <path d="M130.3,116.01 C130.25,115.71 130.65,115.31 130.9,115.26 C131.45,115.16 132.08,115.84 131.73,116.36 C131.4,116.84 130.66,116.5 130.36,116.15 C130.33,116.11 130.3,116.06 130.3,116.01 Z" id="Path" fill="#FBE1CD" fill-rule="nonzero"></path>
                    </g>
                </g>
                <path d="M407.52,177.37 C405.91,176.54 404.28,176.14 403.32,176.44 L405.19,169.9 C405.87,170.01 406.67,170.32 407.52,170.78" id="Path" fill="#D62929" fill-rule="nonzero"></path>
                <rect id="Rectangle" fill="#071F35" fill-rule="nonzero" x="224.06" y="-3.55271368e-15" width="312.75" height="35.48"></rect>
                <line x1="395.46" y1="196.37" x2="400.09" y2="196.37" id="Path" stroke="#004A6A" stroke-width="2"></line>
            </g>
        </g>
    </g>
</svg>